<svg xmlns="http://www.w3.org/2000/svg" xmlns:xlink="http://www.w3.org/1999/xlink" width="42" height="42" viewBox="0 0 42 42">
  <defs>
    <clipPath id="clip-favicon">
      <rect width="42" height="42"/>
    </clipPath>
  </defs>
  <g id="favicon" clip-path="url(#clip-favicon)">
    <g id="Group_85" data-name="Group 85" transform="translate(4 4)" style="isolation: isolate">
      <g id="Group_86" data-name="Group 86" transform="translate(0 0)">
        <path id="Path_50" data-name="Path 50" d="M33.973,59.008a2.818,2.818,0,0,0-.3-.912L27.68,46.725a1.452,1.452,0,0,0-2.027-.571L18.862,50.2,17,51.311,8.347,46.155a1.452,1.452,0,0,0-2.027.571L.329,58.1a2.725,2.725,0,0,0,3.806,3.611L17,54.041l12.866,7.666a2.735,2.735,0,0,0,4.085-1.822q.021-.105.033-.213c.008-.072.013-.144.016-.218a2.62,2.62,0,0,0-.026-.446M13.43,52.921,3.776,58.673a.284.284,0,0,1-.148.045.3.3,0,0,1-.248-.15.261.261,0,0,1,0-.273L7.991,49.54a.285.285,0,0,1,.4-.113l5.041,3a.285.285,0,0,1,0,.49m17.191,5.647a.3.3,0,0,1-.248.15.284.284,0,0,1-.148-.045L20.57,52.921a.285.285,0,0,1,0-.49l5.042-3a.277.277,0,0,1,.144-.04.286.286,0,0,1,.253.153L30.623,58.3a.262.262,0,0,1,0,.272" transform="translate(0 -28.306)" fill="#1a1311"/>
        <path id="Path_52" data-name="Path 52" d="M31.627,19.938l6.7-3.989a1.744,1.744,0,0,0,.65-2.311L32.277.931a1.744,1.744,0,0,0-3.086,0L22.5,13.638a1.744,1.744,0,0,0,.65,2.311l6.694,3.989a1.743,1.743,0,0,0,1.786,0" transform="translate(-13.734 0)" fill="#f89400"/>
        <path id="Path_53" data-name="Path 53" d="M31.627,19.938l6.7-3.989a1.744,1.744,0,0,0,.65-2.311L32.277.931a1.744,1.744,0,0,0-3.086,0L22.5,13.638a1.744,1.744,0,0,0,.65,2.311l6.694,3.989a1.743,1.743,0,0,0,1.786,0" transform="translate(-13.734 0)" fill="#ec6700"/>
        <path id="Path_54" data-name="Path 54" d="M30.734,0a1.725,1.725,0,0,0-1.543.931L22.5,13.639a1.743,1.743,0,0,0,.65,2.311l6.694,3.989a1.742,1.742,0,0,0,.893.246Z" transform="translate(-13.734 0)" fill="#f89400"/>
      </g>
    </g>
  </g>
</svg>
