<svg xmlns="http://www.w3.org/2000/svg" xmlns:xlink="http://www.w3.org/1999/xlink" width="500" height="500" viewBox="0 0 500 500">
  <defs>
    <clipPath id="clip-path">
      <rect id="Rectangle_180" data-name="Rectangle 180" width="346.278" height="409.229" fill="none"/>
    </clipPath>
    <clipPath id="clip-fb-img">
      <rect width="500" height="500"/>
    </clipPath>
  </defs>
  <g id="fb-img" clip-path="url(#clip-fb-img)">
    <rect width="500" height="500" fill="#fff"/>
    <g id="Group_88" data-name="Group 88" transform="translate(77 45)">
      <g id="Group_87" data-name="Group 87" clip-path="url(#clip-path)">
        <path id="Path_1090" data-name="Path 1090" d="M.527,99.135c0-19.188,12.075-28.556,26.8-28.556,14.58,0,26.658,9.369,26.658,28.556v90.424a4.676,4.676,0,0,1-4.716,4.758H41.907a4.8,4.8,0,0,1-4.86-4.758V148.212a3.318,3.318,0,0,0-3.386-3.271H20.847a3.308,3.308,0,0,0-3.386,3.271v41.347a4.675,4.675,0,0,1-4.712,4.758H5.239a4.675,4.675,0,0,1-4.712-4.758Zm36.52,1.783c0-9.966-3.386-14.275-9.72-14.275-6.183,0-9.865,4.013-9.865,14.275v25.135a3.311,3.311,0,0,0,3.386,3.274H33.661a3.319,3.319,0,0,0,3.386-3.274Z" transform="translate(1.204 161.191)" fill="#1a1311"/>
        <path id="Path_1091" data-name="Path 1091" d="M55.088,92.2c0,2.975-2.65,4.762-5.3,4.762H48.314C40.508,96.962,38,99.192,38,108.708v60.679c0,2.233-1.028,4.762-5.448,4.762H26.223a4.678,4.678,0,0,1-4.712-4.762V85.36c0-3.57,2.358-5.8,5.6-5.8a7.5,7.5,0,0,1,4.709,1.934l.591.447a5.441,5.441,0,0,0,3.238,1.189c1.914,0,2.946-.742,6.922-2.23a20.869,20.869,0,0,1,7.806-1.488,4.675,4.675,0,0,1,4.712,4.758Z" transform="translate(49.128 181.36)" fill="#1a1311"/>
        <path id="Path_1092" data-name="Path 1092" d="M39.091,107.679a4.83,4.83,0,0,1-4.712-4.762v-6.1a4.8,4.8,0,0,1,4.712-4.906h2.062a3.232,3.232,0,0,0,3.241-3.422V78.975A4.71,4.71,0,0,1,49.1,74.066h6.922a4.888,4.888,0,0,1,4.712,4.909v9.369a3.507,3.507,0,0,0,3.533,3.57h6.039a4.736,4.736,0,0,1,4.712,4.906v6.545a4.482,4.482,0,0,1-4.712,4.315H64.272a3.358,3.358,0,0,0-3.533,3.271v52.5c0,4.315,2.21,6.991,6.187,6.991h3.238a4.707,4.707,0,0,1,4.86,4.758v6.394a4.672,4.672,0,0,1-4.712,4.762H65.746c-14.432,0-21.352-8.479-21.352-21.864V110.95a3.107,3.107,0,0,0-3.241-3.271Z" transform="translate(78.516 169.155)" fill="#1a1311"/>
        <path id="Path_1093" data-name="Path 1093" d="M84.277,92.2c0,2.975-2.65,4.762-5.3,4.762H77.5c-7.806,0-10.311,2.23-10.311,11.746v60.679c0,2.233-1.028,4.762-5.448,4.762H55.412a4.678,4.678,0,0,1-4.712-4.762V85.36c0-3.57,2.358-5.8,5.6-5.8a7.509,7.509,0,0,1,4.709,1.934l.591.447a5.441,5.441,0,0,0,3.238,1.189c1.915,0,2.946-.742,6.922-2.23a20.869,20.869,0,0,1,7.806-1.488,4.675,4.675,0,0,1,4.712,4.758Z" transform="translate(115.791 181.36)" fill="#1a1311"/>
        <path id="Path_1094" data-name="Path 1094" d="M64.959,84.263A4.678,4.678,0,0,1,69.671,79.5h7.07a4.675,4.675,0,0,1,4.709,4.762v84.92a4.673,4.673,0,0,1-4.709,4.758h-7.07a4.675,4.675,0,0,1-4.712-4.758Z" transform="translate(148.356 181.568)" fill="#1a1311"/>
        <path id="Path_1095" data-name="Path 1095" d="M88.961,191.067a4.628,4.628,0,0,0-3.241,1.189l-.588.447a8.257,8.257,0,0,1-4.565,1.786c-3.093,0-5.743-1.639-5.743-5.95V75.657A4.678,4.678,0,0,1,79.536,70.9h7.07a4.675,4.675,0,0,1,4.709,4.762V90.378c0,1.934-.148,2.975-.148,5.356a3.862,3.862,0,0,0,3.684,3.717c2.062,0,4.712-.742,8.541-.742,13.254,0,23.562,10.114,23.562,28.106v39.56c0,19.634-12.37,28.257-23.709,28.257A24.9,24.9,0,0,1,95,193.149c-2.8-1.041-4.565-2.082-6.039-2.082m21.5-26.921V128.6c0-10.114-3.09-14.725-9.572-14.725s-9.572,4.611-9.572,14.725v35.544c0,10.413,2.946,14.725,9.72,14.725,6.482,0,9.425-4.312,9.425-14.725" transform="translate(170.886 161.913)" fill="#1a1311"/>
        <path id="Path_1096" data-name="Path 1096" d="M128.8,92.2c0,2.975-2.65,4.762-5.3,4.762h-1.471c-7.806,0-10.311,2.23-10.311,11.746v60.679c0,2.233-1.028,4.762-5.448,4.762H99.936a4.678,4.678,0,0,1-4.712-4.762V85.36c0-3.57,2.358-5.8,5.6-5.8a7.5,7.5,0,0,1,4.709,1.934l.591.447a5.441,5.441,0,0,0,3.238,1.189c1.914,0,2.946-.742,6.922-2.23a20.869,20.869,0,0,1,7.806-1.488,4.675,4.675,0,0,1,4.712,4.758Z" transform="translate(217.477 181.36)" fill="#1a1311"/>
        <path id="Path_1097" data-name="Path 1097" d="M29.627,140.788a1.838,1.838,0,0,1,1.373.578,1.918,1.918,0,0,1,.558,1.373v.529A1.9,1.9,0,0,1,31,144.656a1.86,1.86,0,0,1-1.373.562h-9c-.131,0-.2.053-.2.164a1.285,1.285,0,0,1-.374.942,1.255,1.255,0,0,1-.936.381H17.874a1.878,1.878,0,0,1-1.36-.562,1.858,1.858,0,0,1-.571-1.389V129.747a.584.584,0,0,0-.164-.43l-.394-.4a.063.063,0,0,0-.1-.033.106.106,0,0,0-.066.1v.131a1.857,1.857,0,0,1-.555,1.353,1.811,1.811,0,0,1-1.343.565.231.231,0,0,0-.259.263v10.449a7.558,7.558,0,0,1-.365,2.63,2.83,2.83,0,0,1-1.274,1.468,8.56,8.56,0,0,1-3.435.828H7.825a2,2,0,0,1-1.31-.5A2.827,2.827,0,0,1,5.6,144.82c-.085-.243-.164-.486-.227-.726a1.365,1.365,0,0,1-.1-.463,1.4,1.4,0,0,1,.23-.762,1.215,1.215,0,0,1,1.015-.529H7.921a.758.758,0,0,0,.509-.131.657.657,0,0,0,.148-.5v-7.671c0-.043-.016-.066-.049-.066s-.049.013-.049.033a37,37,0,0,1-5.234,8.663,1.215,1.215,0,0,1-.952.463.591.591,0,0,1-.2-.033,1.433,1.433,0,0,1-1.08-.7c-.22-.374-.437-.729-.653-1.057A2.425,2.425,0,0,1,0,140.059v-.2a2.292,2.292,0,0,1,.624-1.422,26.252,26.252,0,0,0,4.519-7.172.161.161,0,0,0-.02-.151.158.158,0,0,0-.144-.082H2.029a1.858,1.858,0,0,1-1.376-.565A1.889,1.889,0,0,1,.1,129.081v-.759a1.9,1.9,0,0,1,.555-1.389,1.88,1.88,0,0,1,1.376-.562H2.1c.154,0,.23-.085.23-.263v-5.491a.173.173,0,0,0-.194-.2,1.481,1.481,0,0,1-1.117-.479,1.553,1.553,0,0,1-.456-1.107v-.893a1.875,1.875,0,0,1,.571-1.389,1.873,1.873,0,0,1,1.36-.562H12.961a1.863,1.863,0,0,1,1.376.562,1.9,1.9,0,0,1,.555,1.389v.827a1.6,1.6,0,0,1-.473,1.156,1.5,1.5,0,0,1-1.13.5c-.154,0-.227.066-.227.2v5.192a.079.079,0,0,0,.062.085.1.1,0,0,0,.1-.02,31.1,31.1,0,0,0,4.647-9.487,1.977,1.977,0,0,1,1.9-1.455,1.8,1.8,0,0,1,.489.066l.949.233a1.823,1.823,0,0,1,1.182.89,1.882,1.882,0,0,1,.227.86,2.009,2.009,0,0,1-.1.6q-.429,1.32-1.051,2.939a.151.151,0,0,0,.016.151.163.163,0,0,0,.148.082h1.6a.3.3,0,0,0,.328-.233q.655-1.882,1.113-3.737a2.092,2.092,0,0,1,.854-1.222,1.932,1.932,0,0,1,1.011-.3,2.465,2.465,0,0,1,.427.036l1.044.233a1.682,1.682,0,0,1,1.113.821,1.872,1.872,0,0,1,.2.828,1.981,1.981,0,0,1-.1.6q-.621,1.685-1.051,2.742a.152.152,0,0,0,.02.151.138.138,0,0,0,.112.082H29.3a1.862,1.862,0,0,1,1.376.562,1.9,1.9,0,0,1,.558,1.389v.463a1.918,1.918,0,0,1-.558,1.373,1.837,1.837,0,0,1-1.376.575H27.729c-.177,0-.266.082-.266.236v1.882a.235.235,0,0,0,.266.266H28.74a1.934,1.934,0,0,1,1.931,1.951v.2a1.891,1.891,0,0,1-.571,1.373,1.861,1.861,0,0,1-1.36.578H27.729c-.177,0-.266.079-.266.23v2.02c0,.154.089.23.266.23H28.74a1.852,1.852,0,0,1,1.36.581,1.879,1.879,0,0,1,.571,1.369v.2a1.94,1.94,0,0,1-1.931,1.954H27.729a.233.233,0,0,0-.266.263v2.118c0,.151.089.23.266.23ZM6.876,120.421a.2.2,0,0,0-.23.233v5.454c0,.177.076.263.23.263H8.315a.232.232,0,0,0,.263-.263v-5.454c0-.154-.089-.233-.263-.233ZM22.75,127.5c.154,0,.227-.089.227-.266V125.35c0-.154-.072-.236-.227-.236H20.688c-.177,0-.263.082-.263.236v1.882a.233.233,0,0,0,.263.266Zm0,6.578a.2.2,0,0,0,.227-.23v-2.02a.2.2,0,0,0-.227-.23H20.688c-.177,0-.263.079-.263.23v2.02c0,.154.085.23.263.23Zm-2.062,4.1a.231.231,0,0,0-.263.263v2.118c0,.151.085.23.263.23H22.75a.2.2,0,0,0,.227-.23V138.44c0-.177-.072-.263-.227-.263Z" transform="translate(0 262.491)" fill="#1a1311"/>
        <path id="Path_1098" data-name="Path 1098" d="M22.569,135.169c-.177,0-.263.076-.263.23v4.729a.305.305,0,0,0,.23.328,20.978,20.978,0,0,0,7.234.926q9.2,0,12.242-.066h.033a1.039,1.039,0,0,1,.916.5,1.287,1.287,0,0,1,.2.66,1.446,1.446,0,0,1-.1.5c-.154.394-.309.814-.456,1.254a2.776,2.776,0,0,1-.936,1.356,2.4,2.4,0,0,1-1.52.529H29.7a27.336,27.336,0,0,1-7.986-.959,10,10,0,0,1-5.077-3.668.121.121,0,0,0-.1-.036.106.106,0,0,0-.1.066,26.244,26.244,0,0,1-1.113,3.7,1.147,1.147,0,0,1-.949.693h-.164a1.244,1.244,0,0,1-.949-.43,2.938,2.938,0,0,1-.3-.263,2.862,2.862,0,0,1-.851-1.356A2.475,2.475,0,0,1,12,143.1a2.693,2.693,0,0,1,.131-.828,29.221,29.221,0,0,0,1.113-8.827v-1.52a1.719,1.719,0,0,1,.522-1.254,1.655,1.655,0,0,1,1.212-.529h.2a2.084,2.084,0,0,1,1.392.66,2.052,2.052,0,0,1,.6,1.389v1.488a1.159,1.159,0,0,0,.1.46,12.417,12.417,0,0,0,.752,1.951c0,.023.016.036.049.036s.053-.023.053-.069v-7.274c0-.174-.079-.266-.233-.266H14.451a1.934,1.934,0,0,1-1.934-1.947v-.4a1.882,1.882,0,0,1,.575-1.369,1.829,1.829,0,0,1,1.36-.581h2.617a.207.207,0,0,0,.233-.233v-1.586a.2.2,0,0,0-.233-.23H15.2a1.828,1.828,0,0,1-1.373-.578,1.918,1.918,0,0,1-.558-1.373v-.332a1.889,1.889,0,0,1,.558-1.386,1.84,1.84,0,0,1,1.373-.565h1.865c.154,0,.233-.089.233-.263v-.929a1.893,1.893,0,0,1,.568-1.373,1.853,1.853,0,0,1,1.36-.575h.493a1.858,1.858,0,0,1,1.36.575,1.91,1.91,0,0,1,.571,1.373v.929c0,.174.076.263.23.263h2.289a.207.207,0,0,0,.233-.233,1.72,1.72,0,0,1,.489-1.238,1.613,1.613,0,0,1,1.208-.512h12.5a1.845,1.845,0,0,1,1.376.578,1.918,1.918,0,0,1,.558,1.373v.2a1.9,1.9,0,0,1-.558,1.389,1.855,1.855,0,0,1-1.376.562h-3.7c-.154,0-.23.092-.23.266v.992a.2.2,0,0,0,.23.23h4.614a9.365,9.365,0,0,1,2.522.266,1.464,1.464,0,0,1,.818.631,1.526,1.526,0,0,1,.263.86v.161a45.2,45.2,0,0,1-2.292,10.449.428.428,0,0,0,.033.43,12.562,12.562,0,0,0,1.737,2.115,1.912,1.912,0,0,1,.555,1.389,1.827,1.827,0,0,1-.46,1.254c-.085.089-.164.167-.227.233a1.725,1.725,0,0,1-1.245.693.591.591,0,0,1-.2.033,1.426,1.426,0,0,1-1.08-.493,13.021,13.021,0,0,1-1.015-1.258.129.129,0,0,0-.131-.069.132.132,0,0,0-.131.069c-.217.309-.437.6-.653.89a1.3,1.3,0,0,1-1.018.5h-.161a1.6,1.6,0,0,1-1.179-.7c-.286-.371-.558-.716-.818-1.025a.091.091,0,0,0-.1-.016.076.076,0,0,0-.066.082v1.025a1.856,1.856,0,0,1-.555,1.356,1.887,1.887,0,0,1-2.686,0,1.856,1.856,0,0,1-.555-1.356v-.759c0-.154-.076-.21-.23-.167q-2.423.6-4.187,1.028a3.644,3.644,0,0,1-.46.03,1.936,1.936,0,0,1-.985-.292,1.855,1.855,0,0,1-.818-1.228l-.062-.46a1.646,1.646,0,0,1-.033-.332,1.527,1.527,0,0,1,.259-.857,1.417,1.417,0,0,1,1.015-.667.206.206,0,0,0,.2-.23v-14.81c0-.174-.076-.266-.227-.266h-.66a.205.205,0,0,0-.227.233,1.841,1.841,0,0,1-.539,1.34,1.809,1.809,0,0,1-1.327.545h-.719a.2.2,0,0,0-.23.23v1.586a.2.2,0,0,0,.23.233H23a1.827,1.827,0,0,1,1.356.581,1.882,1.882,0,0,1,.575,1.369v.4A1.934,1.934,0,0,1,23,128.52h-.427a.234.234,0,0,0-.263.266v1.888a.232.232,0,0,0,.263.263h.263a1.94,1.94,0,0,1,1.931,1.947v.332a1.889,1.889,0,0,1-.575,1.373,1.839,1.839,0,0,1-1.356.581Zm8.085-13.027c.154,0,.23-.089.23-.266v-1.553c0-.174-.076-.266-.23-.266h-1.08a.233.233,0,0,0-.259.266v1.553a.232.232,0,0,0,.259.266Zm0,5.786c.154,0,.23-.092.23-.266v-1.619c0-.177-.076-.266-.23-.266h-1.08a.232.232,0,0,0-.259.266v1.619a.233.233,0,0,0,.259.266Zm-1.34,6.446c0,.174.072.243.227.2l1.113-.2a.285.285,0,0,0,.23-.3v-2.249c0-.174-.076-.263-.23-.263h-1.08a.231.231,0,0,0-.259.263Zm9.622-8.761c.02-.154-.056-.233-.23-.233h-3.8a.2.2,0,0,0-.23.233v.759c0,.177.076.243.23.2l.558-.131a1.888,1.888,0,0,1,.489-.069,1.865,1.865,0,0,1,.982.3,2.077,2.077,0,0,1,.916,1.189c.108.332.22.65.328.959,0,.023.02.036.062.036a.061.061,0,0,0,.069-.069c.236-.988.447-2.049.621-3.172m-4.19,3.373a.032.032,0,0,0-.033-.036c-.023,0-.033.013-.033.036v7.372a.1.1,0,0,0,.066.1.065.065,0,0,0,.1-.033,17.115,17.115,0,0,0,1.537-2.282.537.537,0,0,0,0-.46,36.707,36.707,0,0,1-1.635-4.7" transform="translate(27.395 262.192)" fill="#1a1311"/>
        <path id="Path_1099" data-name="Path 1099" d="M35.206,125.55a1.934,1.934,0,0,1-1.931,1.951h-.887a.229.229,0,0,0-.259.263v17.26a1.9,1.9,0,0,1-.558,1.386,1.843,1.843,0,0,1-1.373.561h-.883a1.934,1.934,0,0,1-1.931-1.947v-17.26c0-.177-.079-.263-.233-.263H25.942a1.862,1.862,0,0,1-1.376-.562,1.907,1.907,0,0,1-.558-1.389v-.529a1.913,1.913,0,0,1,.558-1.373,1.843,1.843,0,0,1,1.376-.581h1.208a.2.2,0,0,0,.233-.23v-6.085a1.878,1.878,0,0,1,.571-1.373,1.851,1.851,0,0,1,1.36-.578H30.2a1.833,1.833,0,0,1,1.373.578,1.918,1.918,0,0,1,.558,1.373v6.085c0,.154.085.23.259.23h.887a1.864,1.864,0,0,1,1.36.581,1.886,1.886,0,0,1,.571,1.373Zm18.754,9.783a1.833,1.833,0,0,1,1.343.562,1.967,1.967,0,0,1,0,2.745,1.821,1.821,0,0,1-1.343.562H51.474c-.174,0-.259.079-.259.23V142.7a6.293,6.293,0,0,1-.365,2.417,2.45,2.45,0,0,1-1.34,1.254,9.732,9.732,0,0,1-3.373.627h-.1a2.079,2.079,0,0,1-1.376-.529,2.819,2.819,0,0,1-.916-1.353c-.194-.6-.414-1.182-.653-1.754-.066-.131-.164-.154-.3-.066l-.686.529a1.771,1.771,0,0,1-1.08.365,1.888,1.888,0,0,1-.328-.033,2.1,2.1,0,0,1-1.274-.762c-.394-.483-.841-.992-1.346-1.52a1.6,1.6,0,0,1-.489-1.156,1.5,1.5,0,0,1,.69-1.323l.066-.066a.074.074,0,0,0,.013-.082c-.007-.036-.023-.053-.046-.053H35.892a1.826,1.826,0,0,1-1.343-.562,1.975,1.975,0,0,1,0-2.745,1.838,1.838,0,0,1,1.343-.562H46.335c.174,0,.259-.076.259-.23v-.66a.232.232,0,0,0-.259-.266h-8.38a1.934,1.934,0,0,1-1.931-1.951v-7.2a1.886,1.886,0,0,1,.571-1.373,1.859,1.859,0,0,1,1.36-.581H42.44c.171,0,.263-.076.263-.23v-.529c0-.154-.092-.233-.263-.233H36.418a1.757,1.757,0,0,1-1.327-.562,1.863,1.863,0,0,1-.542-1.34,1.856,1.856,0,0,1,1.869-1.865H42.44a.237.237,0,0,0,.263-.266v-1.291a1.878,1.878,0,0,1,.571-1.373,1.851,1.851,0,0,1,1.36-.578h.752a1.828,1.828,0,0,1,1.373.578,1.918,1.918,0,0,1,.558,1.373v1.291a.234.234,0,0,0,.263.266H49.9c.023,0,.039-.016.053-.053a.071.071,0,0,0-.02-.079c-.151-.092-.292-.177-.424-.266a1.274,1.274,0,0,1-.653-.929,1,1,0,0,1-.036-.263,1.2,1.2,0,0,1,.332-.828,2.081,2.081,0,0,1,1.143-.726,3.357,3.357,0,0,1,.424-.033,1.993,1.993,0,0,1,.916.23c.545.289,1.061.575,1.54.86a1.121,1.121,0,0,1,.591.9,1.045,1.045,0,0,1,.033.23,1.4,1.4,0,0,1-.3.828c-.023.023-.023.046,0,.079s.043.053.062.053h.1a1.784,1.784,0,0,1,1.323.545,1.8,1.8,0,0,1,.542,1.32,1.863,1.863,0,0,1-.542,1.34,1.75,1.75,0,0,1-1.323.562H47.579c-.177,0-.263.079-.263.233v.529c0,.154.085.23.263.23h4.909a1.83,1.83,0,0,1,1.373.581,1.913,1.913,0,0,1,.558,1.373v7.2a1.9,1.9,0,0,1-.558,1.389,1.85,1.85,0,0,1-1.373.562H51.474a.232.232,0,0,0-.259.266v.66c0,.154.085.23.259.23Zm-13.388-9.159c-.171,0-.259.082-.259.236v.529c0,.154.089.23.259.23H42.44c.171,0,.263-.076.263-.23v-.529c0-.154-.092-.236-.263-.236Zm0,3.872a.231.231,0,0,0-.259.263v.562c0,.158.089.233.259.233H42.44c.171,0,.263-.076.263-.233v-.562a.233.233,0,0,0-.263-.263Zm6.023,12.528v-3.143c0-.151-.085-.23-.259-.23H41.327a.079.079,0,0,0-.085.053.154.154,0,0,0,.02.115,28.365,28.365,0,0,1,2.19,2.246.811.811,0,0,1,.2.693.942.942,0,0,1-.394.63V143c0,.023.013.033.03.033H46.01a.907.907,0,0,0,.456-.082c.089-.056.128-.181.128-.381m3.34-16.163a.206.206,0,0,0-.227-.236H47.579c-.177,0-.263.082-.263.236v.529c0,.154.085.23.263.23h2.128a.2.2,0,0,0,.227-.23Zm-2.617,4.459c0,.158.085.233.263.233h2.128c.151,0,.227-.076.227-.233v-.562c0-.177-.076-.263-.227-.263H47.579a.23.23,0,0,0-.263.263Z" transform="translate(54.83 262.19)" fill="#1a1311"/>
        <path id="Path_1100" data-name="Path 1100" d="M54.359,138.722c-.151,0-.227.085-.227.263v2.745c0,.174.076.263.227.263h9.819a1.848,1.848,0,0,1,1.376.565,1.884,1.884,0,0,1,.558,1.389v.46a1.9,1.9,0,0,1-.558,1.373,1.835,1.835,0,0,1-1.376.578H39.368A1.828,1.828,0,0,1,38,145.779a1.9,1.9,0,0,1-.558-1.373v-.46A1.884,1.884,0,0,1,38,142.557a1.84,1.84,0,0,1,1.373-.565h9.362c.151,0,.23-.089.23-.263v-2.745c0-.177-.079-.263-.23-.263H42.051a1.853,1.853,0,0,1-1.373-.565,1.889,1.889,0,0,1-.558-1.386v-.335a1.911,1.911,0,0,1,.558-1.369,1.816,1.816,0,0,1,1.373-.578h6.679a.206.206,0,0,0,.23-.233v-2.644c0-.177-.079-.263-.23-.263H43.854a1.934,1.934,0,0,1-1.931-1.951v-.565a.132.132,0,0,0-.069-.131.134.134,0,0,0-.131,0c-.565.374-1.133.739-1.7,1.09a2.067,2.067,0,0,1-.985.266,1.815,1.815,0,0,1-.489-.066,2.228,2.228,0,0,1-1.277-.86c-.24-.332-.483-.65-.719-.959a1.46,1.46,0,0,1-.361-.959,1.388,1.388,0,0,1,.033-.3,1.425,1.425,0,0,1,.719-1.09,34.108,34.108,0,0,0,6.023-4.328,32.889,32.889,0,0,0,4.716-5.126,3.578,3.578,0,0,1,3.011-1.619h1.245a3.763,3.763,0,0,1,3.074,1.583,31.429,31.429,0,0,0,11.359,9.228,1.4,1.4,0,0,1,.788.992,2.463,2.463,0,0,1,.03.361,1.374,1.374,0,0,1-.325.893q-.458.6-.916,1.323a2.049,2.049,0,0,1-1.245.89,1.678,1.678,0,0,1-.489.069,2.09,2.09,0,0,1-.985-.263c-.545-.335-1.09-.683-1.635-1.061a.146.146,0,0,0-.128,0,.13.13,0,0,0-.066.131v.5a1.94,1.94,0,0,1-1.931,1.951h-5.11c-.151,0-.227.085-.227.263v2.644a.2.2,0,0,0,.227.233h6.778a1.821,1.821,0,0,1,1.373.578,1.908,1.908,0,0,1,.555,1.369v.335a1.887,1.887,0,0,1-.555,1.386,1.858,1.858,0,0,1-1.373.565ZM44.248,126.916c-.046.023-.066.053-.053.082a.078.078,0,0,0,.082.053H58.943a.081.081,0,0,0,.082-.053c.01-.03-.007-.059-.053-.082a36.966,36.966,0,0,1-7.33-7.139.13.13,0,0,0-.131-.066.218.218,0,0,0-.164.066,34.686,34.686,0,0,1-7.1,7.139" transform="translate(82.659 262.078)" fill="#1a1311"/>
        <path id="Path_1101" data-name="Path 1101" d="M76.937,132.017a2.073,2.073,0,0,1-1.343.791,1.461,1.461,0,0,1-.424.069,2.439,2.439,0,0,1-1.149-.3c-.016-.023-.039-.016-.062.016a.157.157,0,0,0-.033.082,18.279,18.279,0,0,0,5.139,6.712,1.637,1.637,0,0,1,.588,1.32A1.783,1.783,0,0,1,79.2,141.9c-.2.243-.391.486-.591.726a1.811,1.811,0,0,1-1.176.762,1.621,1.621,0,0,1-.328.036,1.536,1.536,0,0,1-.982-.368,23.581,23.581,0,0,1-4.059-4.794.1.1,0,0,0-.082-.016c-.033.013-.049.03-.049.053v3.307a8.184,8.184,0,0,1-.374,2.778,3.12,3.12,0,0,1-1.363,1.583,8.051,8.051,0,0,1-3.6.926.275.275,0,0,1-.128.033,2,2,0,0,1-1.314-.493,3.061,3.061,0,0,1-.949-1.356c-.108-.355-.227-.706-.358-1.061a1.4,1.4,0,0,1-.1-.493,1.34,1.34,0,0,1,.2-.7,1.155,1.155,0,0,1,1.015-.529h1.57a.763.763,0,0,0,.522-.148.712.712,0,0,0,.164-.545V125.075a.2.2,0,0,0-.227-.233H61.65a1.828,1.828,0,0,1-1.376-.578,1.921,1.921,0,0,1-.555-1.369v-.86a.233.233,0,0,0-.263-.266H56.872c-.154,0-.23.089-.23.266v4.4c0,.177.076.263.23.263h.818a1.934,1.934,0,0,1,1.931,1.951v.594a1.934,1.934,0,0,1-1.931,1.951h-.818c-.154,0-.23.089-.23.266v4.4a.167.167,0,0,0,.066.148.258.258,0,0,0,.164.053l1.113-.332a1.891,1.891,0,0,1,.489-.069,1.684,1.684,0,0,1,.916.3,1.624,1.624,0,0,1,.755,1.192l.033.131c.023.174.108.22.259.131q1.768-1.025,3.57-2.049a1.6,1.6,0,0,1,.818-.233,1.693,1.693,0,0,1,.558.1,1.574,1.574,0,0,1,.979.988l.131.368a2.416,2.416,0,0,1,.164.89,2.112,2.112,0,0,1-.131.729,2.306,2.306,0,0,1-.949,1.353q-2.029,1.424-4.187,2.844a1.777,1.777,0,0,1-.985.3,1.609,1.609,0,0,1-.46-.069,1.8,1.8,0,0,1-1.143-.89l-.755-1.323a.217.217,0,0,0-.325-.131q-3.305,1.025-6.972,2.148a1.77,1.77,0,0,1-.555.1,2.016,2.016,0,0,1-.919-.23,1.821,1.821,0,0,1-.883-1.189l-.23-.86a2.152,2.152,0,0,1-.066-.5,1.89,1.89,0,0,1,.263-.956,1.832,1.832,0,0,1,1.179-.86q1.148-.266,2.161-.562a.287.287,0,0,0,.23-.3v-5.619c0-.177-.076-.266-.23-.266H50.521a1.94,1.94,0,0,1-1.934-1.951v-.594a1.94,1.94,0,0,1,1.934-1.951H51.7c.154,0,.23-.085.23-.263v-4.4c0-.177-.076-.266-.23-.266H50.357a1.868,1.868,0,0,1-1.376-.562,1.894,1.894,0,0,1-.555-1.389v-.627a1.91,1.91,0,0,1,.555-1.373,1.845,1.845,0,0,1,1.376-.578h7.628a1.845,1.845,0,0,1,1.376.578,1.923,1.923,0,0,1,.555,1.373v.926c0,.154.085.23.263.23h6.807a.2.2,0,0,0,.227-.23v-3.373a1.9,1.9,0,0,1,.575-1.373,1.85,1.85,0,0,1,1.36-.578H70a1.861,1.861,0,0,1,1.36.578,1.891,1.891,0,0,1,.571,1.373v3.373a.2.2,0,0,0,.23.23h3.566a.106.106,0,0,0,.1-.066.065.065,0,0,0-.03-.1,16.437,16.437,0,0,0-1.773-1.652,1.612,1.612,0,0,1-.585-1.291,1.5,1.5,0,0,1,.489-1.126,2.155,2.155,0,0,1,1.376-.591h.164a2.091,2.091,0,0,1,1.241.394q.719.562,1.376,1.09a1.706,1.706,0,0,1,.591,1.323,1.839,1.839,0,0,1-.591,1.389l-.46.463a.149.149,0,0,0-.016.115.08.08,0,0,0,.085.049h.325a1.827,1.827,0,0,1,1.373.578,1.9,1.9,0,0,1,.558,1.373v.6a1.9,1.9,0,0,1-.558,1.369,1.816,1.816,0,0,1-1.373.578H72.159a.2.2,0,0,0-.23.233v.627a4.484,4.484,0,0,0,.033.5c.325,1.5.667,2.834,1.015,4,.023.069.056.1.1.1a.175.175,0,0,0,.131-.069q.956-1.419,1.737-2.841a1.9,1.9,0,0,1,1.113-.959,2.05,2.05,0,0,1,.621-.1,1.974,1.974,0,0,1,.854.2l.818.43a1.494,1.494,0,0,1,.851,1.09,2.289,2.289,0,0,1,.03.4,1.536,1.536,0,0,1-.325.956q-1.177,1.621-1.964,2.614m-11.195-2.049a1.762,1.762,0,0,1,.2.791,2.112,2.112,0,0,1-.131.729,2.02,2.02,0,0,1-1.08,1.09l-.489.23a1.644,1.644,0,0,1-.69.167,1.482,1.482,0,0,1-.686-.167,1.81,1.81,0,0,1-1.018-1.021,25.659,25.659,0,0,0-1.176-2.417,1.777,1.777,0,0,1-.23-.857,1.874,1.874,0,0,1,.1-.562,1.7,1.7,0,0,1,.949-1.061l.23-.1a2.075,2.075,0,0,1,.883-.2,2.5,2.5,0,0,1,.69.1,2.017,2.017,0,0,1,1.208.959,20.386,20.386,0,0,1,1.245,2.315" transform="translate(109.848 262.169)" fill="#1a1311"/>
        <path id="Path_1102" data-name="Path 1102" d="M90.763,121.162a1.881,1.881,0,0,1-.571,1.373,1.841,1.841,0,0,1-1.356.578H73.119a.368.368,0,0,0-.358.2q-.3.6-.785,1.52a.173.173,0,0,0,0,.151.126.126,0,0,0,.131.079H85.164a1.865,1.865,0,0,1,1.376.565,1.884,1.884,0,0,1,.558,1.389v14.646a7.644,7.644,0,0,1-.41,2.791,2.911,2.911,0,0,1-1.488,1.537,10.269,10.269,0,0,1-4.128.795h-.1a2.063,2.063,0,0,1-1.376-.529,2.57,2.57,0,0,1-.883-1.356c-.089-.351-.184-.7-.292-1.025a1.125,1.125,0,0,1-.1-.463,1.163,1.163,0,0,1,.263-.729,1.117,1.117,0,0,1,.982-.562H79.6c.614.023,1.277.033,2,.033.5,0,.755-.2.755-.594v-.992c0-.154-.089-.233-.263-.233H71.484a.2.2,0,0,0-.23.233v4.164a1.94,1.94,0,0,1-1.931,1.954h-.982a1.94,1.94,0,0,1-1.931-1.954V133a.1.1,0,0,0-.049-.1c-.033-.023-.072-.013-.112.03a24.686,24.686,0,0,1-2.033,1.888,1.726,1.726,0,0,1-1.11.43,1.139,1.139,0,0,1-.3-.036,2.116,2.116,0,0,1-1.31-.762c-.24-.286-.493-.568-.752-.857a1.674,1.674,0,0,1-.427-1.123V132.3a1.686,1.686,0,0,1,.654-1.222,25.837,25.837,0,0,0,6.223-7.77.1.1,0,0,0,.016-.131.143.143,0,0,0-.118-.069H62.483a1.838,1.838,0,0,1-1.359-.578,1.881,1.881,0,0,1-.571-1.373v-.726a1.891,1.891,0,0,1,.571-1.373,1.85,1.85,0,0,1,1.359-.578h6.676a.305.305,0,0,0,.328-.23c.217-.6.414-1.212.591-1.855a2.052,2.052,0,0,1,.949-1.189,1.9,1.9,0,0,1,1.011-.3,3.058,3.058,0,0,1,.46.036l1.277.3a1.71,1.71,0,0,1,1.146.857,1.635,1.635,0,0,1,.259.86,1.367,1.367,0,0,1-.131.562c-.062.243-.141.486-.227.729a.168.168,0,0,0,.016.164.176.176,0,0,0,.148.066H88.836a1.854,1.854,0,0,1,1.356.578,1.891,1.891,0,0,1,.571,1.373Zm-8.673,9.589a.234.234,0,0,0,.263-.266v-.926c0-.154-.089-.23-.263-.23H71.484a.2.2,0,0,0-.23.23v.926c0,.177.076.266.23.266Zm-10.837,5.257c0,.177.076.263.23.263H82.091a.232.232,0,0,0,.263-.263v-.959c0-.154-.089-.23-.263-.23H71.484a.2.2,0,0,0-.23.23Z" transform="translate(137.766 262.443)" fill="#1a1311"/>
        <path id="Path_1103" data-name="Path 1103" d="M80.49,115.292a1.1,1.1,0,0,1,.361-.066,1.372,1.372,0,0,1,.752.23l1.117.627a2.516,2.516,0,0,1,1.08,1.192,2.951,2.951,0,0,1,.158.959,2.292,2.292,0,0,1-.1.66q-1.374,5.024-2.226,7.471a.539.539,0,0,0,.1.466,10.8,10.8,0,0,1,2.066,6.512q0,3.537-1.7,4.758a4.759,4.759,0,0,1-2.029.8,1.6,1.6,0,0,1-.3.03.586.586,0,0,1-.194.033,1.673,1.673,0,0,1-1.182-.5,2.469,2.469,0,0,1-.785-1.389,11.359,11.359,0,0,0-.391-1.455c0-.02-.013-.03-.033-.03s-.036.01-.036.03v8.466a1.934,1.934,0,0,1-1.931,1.947h-.653a1.85,1.85,0,0,1-1.376-.562,1.886,1.886,0,0,1-.555-1.386V117.275a1.9,1.9,0,0,1,.555-1.389,1.85,1.85,0,0,1,1.376-.562h5.76a.5.5,0,0,0,.164-.033m-3.107,4.4a.206.206,0,0,0-.233.23v14.515a.206.206,0,0,0,.233.23h.585a1.489,1.489,0,0,0,.919-.266q.527-.394.525-1.717a8.365,8.365,0,0,0-.985-3.931,5.7,5.7,0,0,1-.686-2.581,4.438,4.438,0,0,1,.1-.926q.557-2.345,1.146-5.323c.023-.154-.046-.23-.2-.23Zm21.634,11.966q-.03,0-.049.049a.073.073,0,0,0,.02.082l1.931,1.36a1.577,1.577,0,0,1,.194,2.446q-1.246,1.187-2.456,2.213a.235.235,0,0,0-.033.365,11.82,11.82,0,0,0,2.88,2.643,1.625,1.625,0,0,1,.722,1.094v.292a1.687,1.687,0,0,1-.328.995,12.7,12.7,0,0,0-.818,1.057,2.167,2.167,0,0,1-1.245.893,1.55,1.55,0,0,1-.456.066,1.645,1.645,0,0,1-.982-.332,14.684,14.684,0,0,1-4.387-5.2,31.328,31.328,0,0,1-2.653-7.786.281.281,0,0,0-.292-.233H89.819q-.227,0-.227.266v7.307c0,.177.076.24.227.2.394-.066.992-.164,1.8-.3a1.621,1.621,0,0,1,.328-.036,1.69,1.69,0,0,1,1.08.4,1.668,1.668,0,0,1,.686,1.258l.033.361v.233a2.3,2.3,0,0,1-1.734,2.184q-2.882.66-6.972,1.55a3.239,3.239,0,0,1-.493.036,2.087,2.087,0,0,1-1.048-.3,2.049,2.049,0,0,1-.979-1.189l-.361-1.09a1.51,1.51,0,0,1-.1-.529,1.707,1.707,0,0,1,1.376-1.589c.46-.066.85-.122,1.185-.164a.242.242,0,0,0,.227-.263V117.341a1.934,1.934,0,0,1,1.928-1.951H98.886a1.94,1.94,0,0,1,1.931,1.951v12.531a1.794,1.794,0,0,1-1.8,1.783M95.973,119.82a.2.2,0,0,0-.23-.23H89.819a.2.2,0,0,0-.227.23v1.389q0,.266.227.266h5.924c.154,0,.23-.089.23-.266Zm-6.154,5.622a.2.2,0,0,0-.227.23v1.553c0,.158.076.233.227.233h5.924a.2.2,0,0,0,.23-.233v-1.553a.2.2,0,0,0-.23-.23Zm8.712,6.413a.19.19,0,0,0,0-.135.117.117,0,0,0-.1-.066H95.776a.2.2,0,0,0-.164.085.131.131,0,0,0-.03.148,16.231,16.231,0,0,0,.785,2.246c.062.154.151.167.263.033.7-.768,1.33-1.543,1.9-2.312" transform="translate(165.887 263.158)" fill="#1a1311"/>
        <path id="Path_1104" data-name="Path 1104" d="M91.094,116.491a2.195,2.195,0,0,1,1.048-1.126,2.087,2.087,0,0,1,.952-.23,1.855,1.855,0,0,1,.588.1l1.9.529a1.692,1.692,0,0,1,1.08.926,1.673,1.673,0,0,1,.164.693,1.518,1.518,0,0,1-.164.7,41.069,41.069,0,0,1-6.844,10.613,1.8,1.8,0,0,1-1.373.594h-.066a2.09,2.09,0,0,1-1.376-.5c-.545-.44-1.113-.883-1.7-1.32a1.455,1.455,0,0,1-.621-1.228,1.486,1.486,0,0,1,.489-1.12,26.8,26.8,0,0,0,5.924-8.63m12.012,19.073a1.568,1.568,0,0,1-.3-.89,1.614,1.614,0,0,1,.069-.463,1.588,1.588,0,0,1,.887-1.057l1.238-.562a2.312,2.312,0,0,1,.985-.233,3.308,3.308,0,0,1,.624.066,2.174,2.174,0,0,1,1.307.893,71.539,71.539,0,0,1,5.431,8.63,1.857,1.857,0,0,1,.233.89,2.062,2.062,0,0,1-1.051,1.754l-1.7.893a1.725,1.725,0,0,1-.785.2,2.068,2.068,0,0,1-.624-.1,1.907,1.907,0,0,1-1.077-.992c-.089-.2-.187-.407-.3-.627a.415.415,0,0,0-.361-.2q-7.729.567-19.8,1.258h-.164a1.95,1.95,0,0,1-1.277-.46,1.994,1.994,0,0,1-.752-1.356l-.164-1.36v-.23a1.688,1.688,0,0,1,.427-1.126,1.641,1.641,0,0,1,1.274-.66q1.606-.03,2.555-.1a.36.36,0,0,0,.358-.23,71.057,71.057,0,0,0,4.745-11.142,2.08,2.08,0,0,1,.949-1.189,1.933,1.933,0,0,1,1.018-.3,2.075,2.075,0,0,1,.489.066l2.1.532a1.477,1.477,0,0,1,1.08.857,1.429,1.429,0,0,1,.033,1.389,100.043,100.043,0,0,1-4.778,9.553.114.114,0,0,0,.016.131.138.138,0,0,0,.115.069q3.207-.133,9.132-.43a.321.321,0,0,0,.112-.1.087.087,0,0,0-.016-.131c-.676-1.149-1.353-2.226-2.029-3.244m-.913-17.056a1.616,1.616,0,0,1-.23-.828,1.792,1.792,0,0,1,.1-.594,1.667,1.667,0,0,1,.982-1.025l1.34-.529a2.058,2.058,0,0,1,.785-.167,2.179,2.179,0,0,1,.755.135,2.339,2.339,0,0,1,1.179,1.025,43.78,43.78,0,0,0,6.187,7.934,1.73,1.73,0,0,1,.522,1.254,1.894,1.894,0,0,1-.591,1.389q-.783.734-1.471,1.52a1.683,1.683,0,0,1-1.245.6h-.062a1.52,1.52,0,0,1-1.182-.562,70.483,70.483,0,0,1-7.067-10.15" transform="translate(193.398 262.95)" fill="#1a1311"/>
        <path id="Path_1105" data-name="Path 1105" d="M122.993,115.407a1.94,1.94,0,0,1,1.931,1.951v22.35a9.094,9.094,0,0,1-.443,3.189,3.362,3.362,0,0,1-1.586,1.767,11.4,11.4,0,0,1-4.811.929h-.069a2.1,2.1,0,0,1-1.405-.532,2.5,2.5,0,0,1-.818-1.386,14.493,14.493,0,0,0-.493-1.589,1.62,1.62,0,0,1-.062-.43,1.283,1.283,0,0,1,.259-.759,1.124,1.124,0,0,1,.982-.529.029.029,0,0,1,.033.033h2.555a.958.958,0,0,0,.637-.164.855.855,0,0,0,.181-.63V120.333c0-.177-.079-.266-.23-.266H98.706a1.862,1.862,0,0,1-1.376-.562,1.881,1.881,0,0,1-.555-1.389v-.759a1.881,1.881,0,0,1,.555-1.389,1.862,1.862,0,0,1,1.376-.562Zm-8.151,6.413a1.845,1.845,0,0,1,1.376.578,1.923,1.923,0,0,1,.555,1.373v.361a1.907,1.907,0,0,1-.555,1.389,1.858,1.858,0,0,1-1.376.565H99.064a1.945,1.945,0,0,1-1.931-1.954v-.361a1.889,1.889,0,0,1,.575-1.373,1.849,1.849,0,0,1,1.356-.578Zm.489,16.068a1.912,1.912,0,0,1-.555,1.389,1.862,1.862,0,0,1-1.376.562h-9.756c-.148,0-.227.089-.227.266v.23a1.882,1.882,0,0,1-.575,1.373,1.849,1.849,0,0,1-1.356.578h-.916a1.851,1.851,0,0,1-1.36-.578,1.891,1.891,0,0,1-.571-1.373V129.918a1.934,1.934,0,0,1,1.931-1.951H113.4a1.875,1.875,0,0,1,1.376.562,1.918,1.918,0,0,1,.555,1.389Zm-4.778-5.487c0-.154-.085-.233-.263-.233h-6.646a.2.2,0,0,0-.227.233v3.008a.2.2,0,0,0,.227.23h6.646c.177,0,.263-.076.263-.23Z" transform="translate(221.019 263.571)" fill="#1a1311"/>
        <path id="Path_1106" data-name="Path 1106" d="M215.95,114.92a17.64,17.64,0,0,0-1.882-5.684l-37.354-70.9a9.054,9.054,0,0,0-12.643-3.556l-52.023,31-1.931,1.149L56.168,34.778a9.051,9.051,0,0,0-12.64,3.556l-37.354,70.9c-8,15.181,8.985,31.3,23.726,22.514l80.218-47.8h0l5,2.982L190.34,131.75c11.979,7.136,25.437-2.164,25.772-14.048a16.289,16.289,0,0,0-.161-2.781M87.861,76.966l-60.2,35.866a1.761,1.761,0,0,1-.923.282,1.875,1.875,0,0,1-1.547-.936,1.638,1.638,0,0,1-.013-1.7L53.945,55.884a1.786,1.786,0,0,1,1.58-.952,1.746,1.746,0,0,1,.9.253L87.861,73.915a1.775,1.775,0,0,1,0,3.051m107.188,35.213a1.881,1.881,0,0,1-1.55.936,1.759,1.759,0,0,1-.919-.282l-60.2-35.866a1.772,1.772,0,0,1,0-3.051l31.433-18.731a1.735,1.735,0,0,1,.9-.253,1.789,1.789,0,0,1,1.58.952l28.766,54.6a1.633,1.633,0,0,1-.013,1.7" transform="translate(9.42 76.511)" fill="#1a1311"/>
        <path id="Path_1107" data-name="Path 1107" d="M64.959,75.657A4.678,4.678,0,0,1,69.671,70.9h7.07a4.675,4.675,0,0,1,4.709,4.762v7.287A4.671,4.671,0,0,1,76.741,87.7h-7.07a4.673,4.673,0,0,1-4.712-4.758Z" transform="translate(148.356 161.913)" fill="#ec6700"/>
        <path id="Path_1108" data-name="Path 1108" d="M78.563,124.322l41.744-24.875a10.874,10.874,0,0,0,4.056-14.41L82.619,5.805a10.874,10.874,0,0,0-19.24,0L21.635,85.038A10.878,10.878,0,0,0,25.69,99.451l41.741,24.872a10.878,10.878,0,0,0,11.132,0" transform="translate(46.544 0.001)" fill="#f89400"/>
        <path id="Path_1109" data-name="Path 1109" d="M78.563,124.322l41.744-24.875a10.874,10.874,0,0,0,4.056-14.41L82.619,5.805a10.874,10.874,0,0,0-19.24,0L21.635,85.038A10.878,10.878,0,0,0,25.69,99.451l41.741,24.872a10.878,10.878,0,0,0,11.132,0" transform="translate(46.544 0.001)" fill="#ec6700"/>
        <path id="Path_1110" data-name="Path 1110" d="M73,0a10.754,10.754,0,0,0-9.618,5.806L21.635,85.038a10.874,10.874,0,0,0,4.056,14.41L67.431,124.32A10.834,10.834,0,0,0,73,125.853Z" transform="translate(46.544)" fill="#f89400"/>
      </g>
    </g>
  </g>
</svg>
