<svg xmlns="http://www.w3.org/2000/svg" width="58" height="58.168" viewBox="0 0 58 58.168">
  <g id="ic-customized" transform="translate(-7258 -3656)">
    <g id="target_1_" data-name="target (1)" transform="translate(7257.5 3656.5)">
      <circle id="Ellipse_7" data-name="Ellipse 7" cx="0.965" cy="0.965" r="0.965" transform="translate(12.133 12.133)" fill="#f89400"/>
      <path id="Path_1089" data-name="Path 1089" d="M56.454,28.495H53.5A24.038,24.038,0,0,0,30.423,5.372V2.464a.964.964,0,1,0-1.928,0V5.372a24.009,24.009,0,0,0-13,4.44.964.964,0,1,0,1.119,1.571A22.079,22.079,0,0,1,28.5,7.3v3.889A18.312,18.312,0,0,0,11.19,28.494H7.3a22.076,22.076,0,0,1,4.081-11.883.964.964,0,1,0-1.571-1.119,24,24,0,0,0-4.441,13H2.464a.964.964,0,1,0,0,1.928H5.371A24.038,24.038,0,0,0,28.5,53.505v2.949a.964.964,0,0,0,1.928,0V53.505A23.958,23.958,0,0,0,53.5,30.423h2.95a.964.964,0,0,0,0-1.928ZM45.139,13.78a22.063,22.063,0,0,1,6.438,14.715H47.728A18.312,18.312,0,0,0,30.423,11.189V7.3a22.111,22.111,0,0,1,14.716,6.48ZM28.5,13.118v2.843a.964.964,0,1,0,1.928,0V13.118A16.386,16.386,0,0,1,45.8,28.495H42.957a.964.964,0,1,0,0,1.928H45.8a16.3,16.3,0,0,1-4.1,9.9,12.562,12.562,0,0,0-8.313-9.254,6.749,6.749,0,1,0-7.854,0,12.562,12.562,0,0,0-8.313,9.254,16.3,16.3,0,0,1-4.1-9.9h2.843a.964.964,0,1,0,0-1.928H13.118A16.386,16.386,0,0,1,28.5,13.118Zm.964,28.874a.964.964,0,0,0-.964.964V45.8a16.3,16.3,0,0,1-9.574-3.806,10.579,10.579,0,0,1,21.076,0A16.3,16.3,0,0,1,30.423,45.8V42.956a.964.964,0,0,0-.964-.964ZM24.639,25.6a4.821,4.821,0,1,1,4.821,4.821A4.821,4.821,0,0,1,24.639,25.6ZM13.779,45.14A22.121,22.121,0,0,1,7.3,30.423H11.19A18.312,18.312,0,0,0,28.5,47.728v3.849A22.067,22.067,0,0,1,13.779,45.14Zm31.36,0a22.067,22.067,0,0,1-14.716,6.436V47.728A18.312,18.312,0,0,0,47.728,30.423h3.849A22.068,22.068,0,0,1,45.139,45.14Z" transform="translate(0 0)" fill="#f89400" stroke="#fff" stroke-width="0.5"/>
    </g>
    <rect id="Rectangle_185" data-name="Rectangle 185" width="58" height="58" transform="translate(7258 3656)" fill="none"/>
  </g>
</svg>
