<svg xmlns="http://www.w3.org/2000/svg" xmlns:xlink="http://www.w3.org/1999/xlink" width="19.125" height="19.197" viewBox="0 0 19.125 19.197">
  <defs>
    <clipPath id="clip-path">
      <rect id="Rectangle_37" data-name="Rectangle 37" width="19.125" height="19.197" transform="translate(0 0)" fill="#1a1311"/>
    </clipPath>
  </defs>
  <g id="ic-logo-triangle" transform="translate(0 0)">
    <g id="Group_43" data-name="Group 43" transform="translate(0 0)" clip-path="url(#clip-path)">
      <path id="Path_146" data-name="Path 146" d="M13.246,6.051,14.432,8.3a.814.814,0,0,1,.07.2l.845,1.647a.485.485,0,0,1,.059.087L18.341,15.8l.6,1.137a1.533,1.533,0,0,1-2.14,2.031L9.563,14.66,2.326,18.972A1.533,1.533,0,0,1,.185,16.941l3.533-6.706c.005-.01.013-.018.019-.028l.891-1.729A.811.811,0,0,1,4.693,8.3L8.837.437a.82.82,0,0,1,1.451,0l1.95,3.7Z" transform="translate(0 0)" fill="#1a1311"/>
    </g>
  </g>
</svg>
