<svg xmlns="http://www.w3.org/2000/svg" width="24" height="17.975" viewBox="0 0 24 17.975">
  <g id="ic-mail" transform="translate(0 -64.266)">
    <path id="Path_135" data-name="Path 135" d="M14.006,178a3.641,3.641,0,0,1-4.011,0L.16,171.514c-.055-.036-.108-.074-.16-.112v10.632a2.2,2.2,0,0,0,2.209,2.186H21.791A2.2,2.2,0,0,0,24,182.034V171.4c-.052.039-.105.076-.16.112Z" transform="translate(0 -101.979)" fill="#fff"/>
    <path id="Path_136" data-name="Path 136" d="M.94,68.338l9.835,6.732a2.156,2.156,0,0,0,2.451,0l9.835-6.732a2.178,2.178,0,0,0,.94-1.8,2.241,2.241,0,0,0-2.209-2.268H2.209A2.242,2.242,0,0,0,0,66.535a2.178,2.178,0,0,0,.94,1.8Z" fill="#fff"/>
  </g>
</svg>
