<svg xmlns="http://www.w3.org/2000/svg" width="28" height="28.001" viewBox="0 0 28 28.001">
  <path id="ic-phone" d="M3.349,18.306a11.2,11.2,0,0,1-.834-4.589A3.7,3.7,0,0,1,3.7,11.182c.77-.738,1.54-1.54,2.311-2.279a2.168,2.168,0,0,1,3.273,0l1.861,1.861c.61.61,1.22,1.187,1.8,1.8a2.184,2.184,0,0,1,0,3.37c-.738.77-1.508,1.508-2.279,2.247a.493.493,0,0,0-.128.61,13.561,13.561,0,0,0,2.054,3.306,24.118,24.118,0,0,0,5.745,5.231c.481.289.995.513,1.508.77a.471.471,0,0,0,.642-.128c.738-.77,1.508-1.54,2.279-2.311a2.168,2.168,0,0,1,3.273,0c1.22,1.22,2.471,2.439,3.691,3.691a2.193,2.193,0,0,1,0,3.338c-.706.706-1.444,1.38-2.086,2.118a4.2,4.2,0,0,1-3.53,1.348A14.368,14.368,0,0,1,18.5,34.513,30.741,30.741,0,0,1,8.324,26.554a27.1,27.1,0,0,1-4.974-8.248Z" transform="translate(-2.5 -8.157)" fill="#1a1311"/>
</svg>
