<svg xmlns="http://www.w3.org/2000/svg" width="58" height="58" viewBox="0 0 58 58">
  <g id="ic-private" transform="translate(-7184 -3820)">
    <g id="gift" transform="translate(7187 3825.899)">
      <path id="Path_1081" data-name="Path 1081" d="M51.168,32.238A3.4,3.4,0,0,0,48.4,29.777V10.29h1.7a.849.849,0,0,0,.849-.849V.95A.849.849,0,0,0,50.094.1H12.736a.849.849,0,0,0-.849.849V9.441a.849.849,0,0,0,.849.849h1.7V27.271h-.849a10.934,10.934,0,0,0-5.943,1.74V24.724a.849.849,0,0,0-.849-.849H.849A.849.849,0,0,0,0,24.724V44.252a.849.849,0,0,0,.849.849H6.792a.849.849,0,0,0,.849-.849V39.966a10.945,10.945,0,0,0,5.943,1.739H27.526a11.181,11.181,0,0,0,2.861-.377L48.77,36.4a3.41,3.41,0,0,0,2.4-4.166ZM13.585,1.8h35.66V8.592H13.585Zm2.547,8.491H46.7V29.923l-9.854,2.643A3.413,3.413,0,0,0,34.6,30.594l-11.44-3.068a7.717,7.717,0,0,0-1.974-.255H16.132ZM5.943,43.4H1.7V25.573H5.943Zm42.386-8.64L29.949,39.687a9.45,9.45,0,0,1-2.423.32H13.585a9.276,9.276,0,0,1-5.6-1.868l-.34-.255V31.092l.34-.255a9.27,9.27,0,0,1,5.6-1.868h7.6a6,6,0,0,1,1.538.2l11.437,3.066A1.712,1.712,0,0,1,35.406,33.7a.828.828,0,0,0,.034.1.837.837,0,0,0-.022.111,1.447,1.447,0,0,1-.056.408,1.7,1.7,0,0,1-1.637,1.256,1.675,1.675,0,0,1-.442-.056l-7.217-1.935a.849.849,0,1,0-.44,1.64l7.217,1.936a3.453,3.453,0,0,0,.884.114,3.39,3.39,0,0,0,3.268-2.495,3.042,3.042,0,0,0,.1-.52l10.351-2.776c.074-.019.154-.038.229-.05a1.7,1.7,0,0,1,1.859,1.249,1.658,1.658,0,0,1,.056.44,1.7,1.7,0,0,1-1.256,1.642Zm0,0" fill="#f89400"/>
      <path id="Path_1082" data-name="Path 1082" d="M248.849,113.8h8.491a.849.849,0,1,0,0-1.7h-8.491a.849.849,0,1,0,0,1.7Zm0,0" transform="translate(-221.679 -100.114)" fill="#f89400"/>
    </g>
    <rect id="Rectangle_186" data-name="Rectangle 186" width="58" height="58" transform="translate(7184 3820)" fill="none"/>
  </g>
</svg>
