<svg xmlns="http://www.w3.org/2000/svg" width="24" height="24" viewBox="0 0 24 24">
  <g id="ic-tel" transform="translate(-7018 -5467)">
    <g id="call" transform="translate(7018 5468)">
      <path id="Path_151" data-name="Path 151" d="M14.731,17.246c.988.588,1.812-.522,2.511-1.046a2.5,2.5,0,0,1,3.1-.079l2.79,2.092a2.714,2.714,0,0,1,.291,4.09c-4.139,4.065-10.771,1.075-15.643-3.661a18.4,18.4,0,0,1-5.5-9.863C1.465,5.548,4.88-.282,8.21,3.289L10.3,6.079a2.5,2.5,0,0,1-.079,3.1l-.918,1.1a1.245,1.245,0,0,0-.128,1.409,14.622,14.622,0,0,0,5.554,5.554Z" transform="translate(-2.159 -2.17)" fill="#fff"/>
    </g>
    <rect id="Rectangle_188" data-name="Rectangle 188" width="24" height="24" transform="translate(7018 5467)" fill="none"/>
  </g>
</svg>
