<svg xmlns="http://www.w3.org/2000/svg" width="24" height="24" viewBox="0 0 24 24">
  <g id="ic-time" transform="translate(-7017 -5554)">
    <g id="Layer_2" data-name="Layer 2" transform="translate(7017 5554)">
      <path id="Path_1080" data-name="Path 1080" d="M12.53,1A11.53,11.53,0,1,0,24.06,12.53,11.53,11.53,0,0,0,12.53,1Zm3.886,15.416a1.048,1.048,0,0,1-1.482,0l-3.145-3.145a1.048,1.048,0,0,1-.307-.741V6.241a1.048,1.048,0,1,1,2.1,0V12.1l2.837,2.837a1.048,1.048,0,0,1,0,1.482Z" transform="translate(-1 -1)" fill="#fff"/>
    </g>
    <rect id="Rectangle_189" data-name="Rectangle 189" width="24" height="24" transform="translate(7017 5554)" fill="none"/>
  </g>
</svg>
