<svg xmlns="http://www.w3.org/2000/svg" xmlns:xlink="http://www.w3.org/1999/xlink" width="225" height="85" viewBox="0 0 225 85">
  <defs>
    <clipPath id="clip-path">
      <rect id="Rectangle_19" data-name="Rectangle 19" width="191.378" height="84.763" fill="none"/>
    </clipPath>
  </defs>
  <g id="logo2" transform="translate(-1168 -2196)">
    <g id="Group_91" data-name="Group 91" transform="translate(1185 2196)" style="isolation: isolate">
      <path id="Path_76" data-name="Path 76" d="M2.569,43.7l20.257-6.553L17.911,47.859l4.746,25.732,11.591-41.31,13.5,35.431L42.442,89.749l-25.474-.986Z" transform="translate(-0.463 -5.814)" fill="#f3b2b3"/>
      <path id="Path_77" data-name="Path 77" d="M79.728,37.945,71.51,19.718l-30.3,9.568,13.5,35.431,54.012,22.192L93.539,61.352l10.823-20.1-15.469-25.6Z" transform="translate(-7.422 -2.82)" fill="#fadede"/>
      <path id="Path_78" data-name="Path 78" d="M26.2,38.214l6.636,15.179L26.028,74.66,21.282,48.927Z" transform="translate(-3.833 -6.883)" fill="#fadddd"/>
      <path id="Path_79" data-name="Path 79" d="M65.585,97.781h46.4L59.363,76.018Z" transform="translate(-10.692 -13.692)" fill="#f3b2b3"/>
      <path id="Path_80" data-name="Path 80" d="M74.37,33.209l7.1-20.373L114.567,2.383,99.93,82.45H56.024l-4.2-11.039-2.364-6.337-.086-.232-1.664-4.463L46.273,64.92l-5.5,17.386-.045.143H17.819L2.106,37.885l20.257-6.553,4.27,12.559,1.7,4.977,1.434-5.07L34.3,27.758,63.1,18.494l6.411,11.574,1.88,3.4,1.775,3.207Zm5.824-21.689L72.821,32.668l-1.88-3.394L63.878,16.519,32.965,26.467,28.189,43.351l0,.011L23.4,29.274,0,36.842,16.658,84.089H41.931l.046-.143h.007l0-.011,5.856-18.52.088.232,2.363,6.337,4.607,12.106h46.4L116.67,0Z" transform="translate(0)" fill="#e0364e"/>
      <rect id="Rectangle_16" data-name="Rectangle 16" width="0.984" height="23.362" transform="translate(22.258 68.466) rotate(-50.026)" fill="#e0364e"/>
      <path id="Path_81" data-name="Path 81" d="M17.653,91.344l-.938-.3,4.96-15.625L1.165,44.954l28.044,9.981L22.757,75.264l.435.647-.814.549Zm-14-44.462L22.055,74.223l5.929-18.679Z" transform="translate(-0.21 -8.097)" fill="#e0364e"/>
      <path id="Path_82" data-name="Path 82" d="M99.006,60.448,69.427,40.7l.546-.818L98.622,59.008,126.631,2.641l.881.437Z" transform="translate(-12.505 -0.476)" fill="#e0364e"/>
      <path id="Path_83" data-name="Path 83" d="M67.258,96.127l-.619-.764L93.978,73.224l-35.469,2.49-.069-.982,38.583-2.706Z" transform="translate(-10.526 -12.973)" fill="#e0364e"/>
      <path id="Path_84" data-name="Path 84" d="M27.83,72.112l-.76-.625L68.944,20.6,52.132,69.309l-.931-.321L66.23,25.446Z" transform="translate(-4.876 -3.71)" fill="#e0364e"/>
      <path id="Path_85" data-name="Path 85" d="M111.875,91.543,58.263,70.506l.359-.916L109.613,89.6,83.1,43.79l.851-.494Z" transform="translate(-10.494 -7.798)" fill="#e0364e"/>
      <path id="Path_86" data-name="Path 86" d="M27.619,74.5l-.221-.959L52.22,67.832,38.894,33.306l.917-.354L53.547,68.537Z" transform="translate(-4.935 -5.935)" fill="#e0364e"/>
      <path id="Path_87" data-name="Path 87" d="M104.8,62.17,98.031,13.217l26.362,41.842ZM99.631,17.6,105.61,60.83l17.3-6.279Z" transform="translate(-17.657 -2.381)" fill="#e0364e"/>
      <path id="Path_88" data-name="Path 88" d="M25.454,75.137l-4.8-27.589,5.2-10.16.876.448L21.682,47.7l4.742,27.266Z" transform="translate(-3.72 -6.734)" fill="#e0364e"/>
      <g id="Group_12" data-name="Group 12" transform="translate(0)">
        <g id="Group_11" data-name="Group 11" clip-path="url(#clip-path)">
          <path id="Path_89" data-name="Path 89" d="M29.347,82.694a2.881,2.881,0,1,1-2.88-2.88,2.88,2.88,0,0,1,2.88,2.88" transform="translate(-4.248 -14.376)" fill="#e0364e"/>
          <path id="Path_90" data-name="Path 90" d="M71.634,47.754a3.683,3.683,0,1,1-3.684-3.683,3.683,3.683,0,0,1,3.684,3.683" transform="translate(-11.575 -7.938)" fill="#e0364e"/>
          <path id="Path_91" data-name="Path 91" d="M108.559,71.343a4.215,4.215,0,1,1-4.215-4.215,4.215,4.215,0,0,1,4.215,4.215" transform="translate(-18.034 -12.091)" fill="#e0364e"/>
          <path id="Path_92" data-name="Path 92" d="M120.245,46.171a2.573,2.573,0,1,1-2.573-2.573,2.573,2.573,0,0,1,2.573,2.573" transform="translate(-20.731 -7.853)" fill="#e0364e"/>
          <path id="Path_93" data-name="Path 93" d="M23.29,50.716a2.573,2.573,0,1,1-2.573-2.573,2.573,2.573,0,0,1,2.573,2.573" transform="translate(-3.268 -8.671)" fill="#e0364e"/>
          <path id="Path_94" data-name="Path 94" d="M108.063,28.4a1.64,1.64,0,1,1-1.64-1.64,1.639,1.639,0,0,1,1.64,1.64" transform="translate(-18.873 -4.819)" fill="#e0364e"/>
          <path id="Path_95" data-name="Path 95" d="M61.967,42.482a1.64,1.64,0,1,1-1.64-1.64,1.639,1.639,0,0,1,1.64,1.64" transform="translate(-10.57 -7.356)" fill="#e0364e"/>
          <path id="Path_96" data-name="Path 96" d="M63.967,62.383a1.64,1.64,0,1,1-1.64-1.64,1.639,1.639,0,0,1,1.64,1.64" transform="translate(-10.93 -10.941)" fill="#e0364e"/>
          <path id="Path_97" data-name="Path 97" d="M99.409,91.265a1.64,1.64,0,1,1-1.64-1.64,1.64,1.64,0,0,1,1.64,1.64" transform="translate(-17.314 -16.143)" fill="#e0364e"/>
          <path id="Path_98" data-name="Path 98" d="M19.949,69.909a1.64,1.64,0,1,1-1.64-1.64,1.64,1.64,0,0,1,1.64,1.64" transform="translate(-3.002 -12.296)" fill="#e0364e"/>
          <path id="Path_99" data-name="Path 99" d="M149.755,47.172h3.12L154.316,63h.059l1.53-15.833h3.532L160.967,63h.059l1.441-15.833h2.8l-2.089,20.6h-4.032l-1.471-13.89h-.059l-1.472,13.89h-4.3Z" transform="translate(-26.973 -8.496)" fill="#474645"/>
          <rect id="Rectangle_17" data-name="Rectangle 17" width="3.237" height="20.6" transform="translate(139.939 38.676)" fill="#474645"/>
          <path id="Path_100" data-name="Path 100" d="M177.571,47.172h4.061l3.149,12.33h.058V47.172h2.884v20.6H184.4l-3.885-15.038h-.058V67.772h-2.884Z" transform="translate(-31.983 -8.496)" fill="#474645"/>
          <path id="Path_101" data-name="Path 101" d="M192.9,47.172h4.061l3.149,12.33h.059V47.172h2.884v20.6h-3.325L195.84,52.733h-.059V67.772H192.9Z" transform="translate(-34.743 -8.496)" fill="#474645"/>
          <path id="Path_102" data-name="Path 102" d="M208.222,47.172h8.829v2.943h-5.592v5.444H215.9V58.5h-4.444v6.328h5.592v2.943h-8.829Z" transform="translate(-37.503 -8.496)" fill="#474645"/>
          <path id="Path_103" data-name="Path 103" d="M221.251,47.172h4.8a4.955,4.955,0,0,1,3.649,1.163,4.912,4.912,0,0,1,1.147,3.576v1.266q0,3.207-2.119,4.061V57.3a2.528,2.528,0,0,1,1.663,1.442,7.26,7.26,0,0,1,.486,2.914v3.62a13.83,13.83,0,0,0,.058,1.427,3.587,3.587,0,0,0,.294,1.074h-3.3a4.644,4.644,0,0,1-.235-.941,14.129,14.129,0,0,1-.059-1.589V61.475a3.2,3.2,0,0,0-.456-1.973,1.931,1.931,0,0,0-1.574-.558h-1.119v8.828h-3.237ZM225.665,56a1.943,1.943,0,0,0,1.457-.5,2.362,2.362,0,0,0,.485-1.677V52.234a2.616,2.616,0,0,0-.4-1.618,1.5,1.5,0,0,0-1.251-.5h-1.472V56Z" transform="translate(-39.85 -8.496)" fill="#474645"/>
          <path id="Path_104" data-name="Path 104" d="M151.658,97.405a5.312,5.312,0,0,1-1.222-3.738V82.6a5.31,5.31,0,0,1,1.222-3.737,5.408,5.408,0,0,1,7.092,0,5.31,5.31,0,0,1,1.222,3.737V84.78H156.91V82.4q0-1.912-1.618-1.913T153.673,82.4V93.9q0,1.883,1.619,1.882T156.91,93.9V90.754h3.061v2.913a5.312,5.312,0,0,1-1.222,3.738,5.41,5.41,0,0,1-7.092,0" transform="translate(-27.095 -13.966)" fill="#e0364e"/>
          <path id="Path_105" data-name="Path 105" d="M166.749,77.9h4.385l3.355,20.6h-3.238l-.588-4.09v.059h-3.679L166.4,98.5h-3Zm3.531,13.772L168.838,81.49h-.058l-1.413,10.182Z" transform="translate(-29.429 -14.031)" fill="#e0364e"/>
          <path id="Path_106" data-name="Path 106" d="M179.52,80.842h-3.385V77.9h10.006v2.943h-3.384V98.5H179.52Z" transform="translate(-31.724 -14.031)" fill="#e0364e"/>
          <path id="Path_107" data-name="Path 107" d="M191.069,97.405a5.312,5.312,0,0,1-1.222-3.738V82.6a5.31,5.31,0,0,1,1.222-3.737,5.408,5.408,0,0,1,7.092,0,5.31,5.31,0,0,1,1.222,3.737V84.78h-3.061V82.4q0-1.912-1.618-1.913T193.084,82.4V93.9q0,1.883,1.619,1.882t1.618-1.882V90.754h3.061v2.913a5.313,5.313,0,0,1-1.222,3.738,5.41,5.41,0,0,1-7.092,0" transform="translate(-34.194 -13.966)" fill="#e0364e"/>
          <path id="Path_108" data-name="Path 108" d="M203.846,77.9h3.237v8.387h3.473V77.9h3.237V98.5h-3.237v-9.27h-3.473V98.5h-3.237Z" transform="translate(-36.715 -14.031)" fill="#e0364e"/>
          <path id="Path_109" data-name="Path 109" d="M218.919,77.9h4.8a4.138,4.138,0,0,1,4.8,4.738V83.9q0,3.207-2.119,4.061v.058a2.528,2.528,0,0,1,1.663,1.442,7.26,7.26,0,0,1,.486,2.914V96a13.83,13.83,0,0,0,.058,1.427A3.588,3.588,0,0,0,228.9,98.5h-3.3a4.643,4.643,0,0,1-.235-.941,14.131,14.131,0,0,1-.059-1.59V92.2a3.2,3.2,0,0,0-.456-1.973,1.931,1.931,0,0,0-1.574-.558h-1.119V98.5h-3.237Zm4.414,8.829a1.943,1.943,0,0,0,1.457-.5,2.363,2.363,0,0,0,.485-1.677V82.961a2.615,2.615,0,0,0-.4-1.618,1.5,1.5,0,0,0-1.251-.5h-1.472v5.886Z" transform="translate(-39.43 -14.031)" fill="#e0364e"/>
          <rect id="Rectangle_18" data-name="Rectangle 18" width="3.282" height="3.282" transform="translate(139.917 32.429)" fill="#ffc412"/>
        </g>
      </g>
    </g>
    <rect id="Rectangle_183" data-name="Rectangle 183" width="225" height="84" transform="translate(1168 2197)" fill="none"/>
  </g>
</svg>
