<svg xmlns="http://www.w3.org/2000/svg" xmlns:xlink="http://www.w3.org/1999/xlink" width="225.469" height="84" viewBox="0 0 225.469 84">
  <defs>
    <clipPath id="clip-path">
      <rect id="Rectangle_20" data-name="Rectangle 20" width="225.469" height="69.776" fill="none"/>
    </clipPath>
  </defs>
  <g id="logo1" transform="translate(-778 -2193)">
    <g id="Group_90" data-name="Group 90" transform="translate(778 2200)" style="isolation: isolate">
      <g id="Group_14" data-name="Group 14" transform="translate(0)" clip-path="url(#clip-path)">
        <path id="Path_110" data-name="Path 110" d="M92.7,54.16h2.821c3.413,0,4.724,1.1,4.724,3.761s-1.31,3.721-4.67,3.721h-.742v2.68H92.7Zm3.2,5.531c1.511,0,2.172-.505,2.172-1.812,0-1.291-.661-1.8-2.172-1.8H94.828v3.608Z" transform="translate(-5.94 -3.471)" fill="#1f89cd"/>
        <path id="Path_111" data-name="Path 111" d="M101.972,60.445a3.992,3.992,0,1,1,7.976,0,3.993,3.993,0,1,1-7.976,0m5.938,0c0-1.5-.81-2.4-1.957-2.4s-1.944.884-1.944,2.4c0,1.531.81,2.415,1.957,2.415s1.944-.9,1.944-2.415" transform="translate(-6.535 -3.606)" fill="#1f89cd"/>
        <path id="Path_112" data-name="Path 112" d="M111.206,56.44h2.213l1.822,5.545,1.727-5.545h1.566l1.714,5.545,1.822-5.545h2.241l-3,8.029h-2l-1.565-5.194-1.579,5.194h-2.011Z" transform="translate(-7.127 -3.617)" fill="#1f89cd"/>
        <path id="Path_113" data-name="Path 113" d="M125.791,60.445a3.877,3.877,0,0,1,3.953-4.169c2.551,0,4.05,1.852,3.806,4.66h-5.709A1.911,1.911,0,0,0,129.866,63a1.7,1.7,0,0,0,1.742-1l1.876.239a3.528,3.528,0,0,1-3.671,2.373,3.857,3.857,0,0,1-4.022-4.169m5.883-.913a1.771,1.771,0,0,0-1.876-1.755,1.809,1.809,0,0,0-1.917,1.755Z" transform="translate(-8.061 -3.606)" fill="#1f89cd"/>
        <path id="Path_114" data-name="Path 114" d="M135.975,56.431h2.051v1.207a2.235,2.235,0,0,1,2.606-1.306l-.2,2.022c-1.54-.3-2.4.448-2.4,2.315v3.79h-2.051Z" transform="translate(-8.714 -3.608)" fill="#1f89cd"/>
        <path id="Path_115" data-name="Path 115" d="M148.658,62.972v1.306h-2.051V53.651h2.051v3.958a2.572,2.572,0,0,1,2.457-1.5c1.916,0,3.427,1.473,3.427,4.169s-1.512,4.2-3.414,4.2a2.612,2.612,0,0,1-2.47-1.5m3.834-2.7c0-1.5-.8-2.4-1.957-2.4-1.134,0-1.943.884-1.943,2.4,0,1.531.809,2.415,1.957,2.415s1.943-.9,1.943-2.415" transform="translate(-9.395 -3.438)" fill="#1f89cd"/>
        <path id="Path_116" data-name="Path 116" d="M158.939,64.428l-3.2-7.987h2.241l2.052,5.7,2.037-5.7h2.254L160.1,67.067h-2.254Z" transform="translate(-9.981 -3.617)" fill="#1f89cd"/>
        <path id="Path_117" data-name="Path 117" d="M176.375,62.555h-4.183l-.621,1.769H169.33L173.2,54.161h2.159l3.887,10.163H177Zm-.566-1.628-1.526-4.351-1.525,4.351Z" transform="translate(-10.852 -3.471)" fill="#1f89cd"/>
        <path id="Path_118" data-name="Path 118" d="M181.015,56.431h2.051v1.207a2.235,2.235,0,0,1,2.606-1.306l-.2,2.022c-1.54-.3-2.4.448-2.4,2.315v3.79h-2.051Z" transform="translate(-11.6 -3.608)" fill="#1f89cd"/>
        <path id="Path_119" data-name="Path 119" d="M187.864,61.14V57.925h-1.093V56.311h1.093V54.865l2.065-.45v1.9h2.106v1.614h-2.106v3.018c0,1.362.378,1.839,1.39,1.839a4.469,4.469,0,0,0,.62-.069l.271,1.614a5.533,5.533,0,0,1-1.243.14c-2.1,0-3.1-.884-3.1-3.327" transform="translate(-11.969 -3.487)" fill="#1f89cd"/>
        <path id="Path_120" data-name="Path 120" d="M194,56.431h2.051v1.207a2.235,2.235,0,0,1,2.606-1.306l-.2,2.022c-1.54-.3-2.4.448-2.4,2.315v3.79H194Z" transform="translate(-12.433 -3.608)" fill="#1f89cd"/>
        <path id="Path_121" data-name="Path 121" d="M200.188,54.1a1.054,1.054,0,0,1,1.174-1.08,1.084,1.084,0,1,1,0,2.161,1.062,1.062,0,0,1-1.174-1.081m.148,2.121h2.038v8.029h-2.038Z" transform="translate(-12.829 -3.398)" fill="#1f89cd"/>
        <path id="Path_122" data-name="Path 122" d="M206.754,62.972v1.306H204.7V53.651h2.051v3.958a2.572,2.572,0,0,1,2.457-1.5c1.916,0,3.427,1.473,3.427,4.169s-1.512,4.2-3.414,4.2a2.612,2.612,0,0,1-2.47-1.5m3.834-2.7c0-1.5-.8-2.4-1.957-2.4-1.134,0-1.943.884-1.943,2.4,0,1.531.809,2.415,1.957,2.415s1.943-.9,1.943-2.415" transform="translate(-13.119 -3.438)" fill="#1f89cd"/>
        <path id="Path_123" data-name="Path 123" d="M215.046,56.431H217.1v1.207a2.235,2.235,0,0,1,2.606-1.306l-.2,2.022c-1.54-.3-2.4.448-2.4,2.315v3.79h-2.051Z" transform="translate(-13.781 -3.608)" fill="#1f89cd"/>
        <path id="Path_124" data-name="Path 124" d="M153.331,12.714h8.044c9.727,0,13.954,2.667,13.954,10.465S171.1,33.645,161.415,33.645h-3.323v8.784h-4.761Zm8.741,16.581c5.623,0,8.414-1.313,8.414-6.2,0-4.842-2.791-6.155-8.414-6.155h-3.98V29.295Z" transform="translate(-9.826 -0.815)" fill="#1f89cd"/>
        <path id="Path_125" data-name="Path 125" d="M181.617,27.589c0-10.589,6.608-15.226,14.037-15.226,7.3,0,14,4.637,14,15.226,0,10.794-6.649,15.268-14.078,15.268s-13.954-4.474-13.954-15.268m23.271,0c0-6.855-3.611-10.917-9.234-10.917-5.746,0-9.357,4.023-9.357,10.917,0,7.018,3.488,10.958,9.275,10.958,5.746,0,9.316-3.939,9.316-10.958" transform="translate(-11.639 -0.792)" fill="#1f89cd"/>
        <path id="Path_126" data-name="Path 126" d="M215.869,34.763l4.474-.9c1.231,3.078,4.062,4.8,7.838,4.8,4.1,0,6.444-1.642,6.444-4.474,0-7.018-17.484-2.134-17.484-13.585,0-4.966,4.186-8.373,10.3-8.373,6.033,0,10.1,2.668,11.615,7.634l-4.35.861c-1.273-2.831-3.571-4.268-7.142-4.268-3.693,0-5.827,1.56-5.827,4.145,0,7.387,17.565,1.97,17.565,13.585,0,5.212-4.35,8.619-11.081,8.619-6.2,0-10.835-2.955-12.353-8.044" transform="translate(-13.834 -0.784)" fill="#1f89cd"/>
        <path id="Path_127" data-name="Path 127" d="M75.839,19.077h-3.5v-2.97h4c.247-2.086.459-4.207.564-6.294l4.491.142c-.317,2.121-.635,4.172-.989,6.152h6.081v2.97c-.46,5.9-1.626,10.713-3.5,14.461l-.107.212c1.379,1.344,2.829,2.864,4.349,4.526L85.138,40.22a50.853,50.853,0,0,0-4-3.747,24.785,24.785,0,0,1-7.425,6.471L71.809,40.68a20.658,20.658,0,0,0,6.682-6.364q-2.6-2.016-5.516-3.925a74.571,74.571,0,0,0,2.864-11.314m3.925,0A79.875,79.875,0,0,1,76.9,28.835a33.535,33.535,0,0,1,3.218,2.44,40.024,40.024,0,0,0,2.4-12.2ZM87.9,12.288h15.769v2.971a24.53,24.53,0,0,1-5.233,5.868v3.854h6.788v3.041H98.433V38.984A3.253,3.253,0,0,1,97.3,41.741a6.6,6.6,0,0,1-3.853.849,22.674,22.674,0,0,1-3.924-.318L88.815,38.7a25.228,25.228,0,0,0,3.359.284,2.163,2.163,0,0,0,1.484-.354,1.836,1.836,0,0,0,.389-1.238V28.022H86.623V24.981h7.426v-4.49h.743a25.431,25.431,0,0,0,4.1-5.233h-11Z" transform="translate(-4.602 -0.629)" fill="#1f89cd"/>
        <path id="Path_128" data-name="Path 128" d="M114.3,36.754a30.847,30.847,0,0,1-2.085,6.152l-2.475-.354a41.5,41.5,0,0,0,1.237-6.293Zm12.834-3.819a156.584,156.584,0,0,1-16.193,2.651l-.283-3.889c2.085-.071,4.1-.177,6.082-.284v-2.4h-5.763V26.182h5.763V23.813h-5.622V11.651h15.557V23.813h-5.762v2.369h5.657V29.01h-5.657v2.122c2.051-.177,4.066-.353,6.01-.565Zm-9.97-18.527H114.37v1.45l1.732-.531a22.267,22.267,0,0,1,1.06,3.854Zm0,6.647V19.747l-1.485.353a22.939,22.939,0,0,0-1.307-3.359v4.314Zm.778,14.991a40.639,40.639,0,0,1,1.1,6.117l-2.475.283a35.036,35.036,0,0,0-1.945-6.046Zm4.1-.778a42.751,42.751,0,0,1,1.451,6.152l-2.4.354a32.407,32.407,0,0,0-2.3-5.939Zm-1.414-20.861v4.95a26.126,26.126,0,0,0,.955-4.066l1.839.6V14.408Zm0,5.268v1.379h2.794V16.883a25.913,25.913,0,0,1-1.415,3.323Zm5.338,14.744a38.07,38.07,0,0,1,1.309,5.763l-2.263.353a31.421,31.421,0,0,0-2.227-5.551Zm15.769-8.593V42.658h-4.171V40.184h-5.728v2.475h-4.172V25.828h4.491V9.776h4.314v6.117h6.754v2.97h-6.754v6.965Zm-9.9,11.314h5.728V28.869h-5.728Z" transform="translate(-7.033 -0.626)" fill="#1f89cd"/>
        <path id="Path_129" data-name="Path 129" d="M196.2,34.761c-1.423,0-4.754,0-4.754-6.578,0-6.535,3.518-6.535,4.842-6.535,3.124,0,4.709,2.2,4.709,6.535,0,6.578-3.362,6.578-4.8,6.578" transform="translate(-12.269 -1.387)" fill="#f89400"/>
        <path id="Path_130" data-name="Path 130" d="M38.146,41.161l13.821-8.235a3.6,3.6,0,0,0,1.342-4.771L39.489,1.922a3.6,3.6,0,0,0-6.371,0L19.3,28.155a3.6,3.6,0,0,0,1.342,4.77l13.82,8.235a3.6,3.6,0,0,0,3.686,0" transform="translate(-1.21 0)" fill="#f89400"/>
        <path id="Path_131" data-name="Path 131" d="M38.146,41.161l13.821-8.235a3.6,3.6,0,0,0,1.342-4.771L39.489,1.922a3.6,3.6,0,0,0-6.371,0L19.3,28.155a3.6,3.6,0,0,0,1.342,4.77l13.82,8.235a3.6,3.6,0,0,0,3.686,0" transform="translate(-1.21 0)" fill="#f89400"/>
        <path id="Path_132" data-name="Path 132" d="M36.3,0a3.561,3.561,0,0,0-3.185,1.922L19.3,28.155a3.6,3.6,0,0,0,1.342,4.77l13.82,8.235a3.6,3.6,0,0,0,1.843.507Z" transform="translate(-1.21 0)" fill="#ffb100"/>
        <path id="Path_133" data-name="Path 133" d="M70.135,65.927a5.794,5.794,0,0,0-.626-1.936L57.141,40.517a3,3,0,0,0-4.185-1.177l-14.3,8.521-3.562,2.123L17.231,39.34a3,3,0,0,0-4.185,1.177L.679,63.991a5.625,5.625,0,0,0,7.856,7.455L35.093,55.62,61.652,71.446a5.518,5.518,0,0,0,3.659.768,5.71,5.71,0,0,0,4.823-6.287M27.724,53.308,7.794,65.182a.587.587,0,0,1-.305.093.622.622,0,0,1-.513-.31.541.541,0,0,1,0-.563L16.5,46.328a.59.59,0,0,1,.522-.315.575.575,0,0,1,.3.083l10.407,6.2a.588.588,0,0,1,0,1.011M63.212,64.965a.624.624,0,0,1-.513.31.585.585,0,0,1-.305-.093L42.463,53.308a.589.589,0,0,1,0-1.011l10.407-6.2a.57.57,0,0,1,.3-.084.591.591,0,0,1,.523.315L63.215,64.4a.54.54,0,0,1,0,.562" transform="translate(0 -2.494)" fill="#1f89cd"/>
      </g>
    </g>
    <rect id="Rectangle_182" data-name="Rectangle 182" width="225" height="84" transform="translate(778 2193)" fill="none"/>
  </g>
</svg>
