<svg xmlns="http://www.w3.org/2000/svg" xmlns:xlink="http://www.w3.org/1999/xlink" width="139" height="50" viewBox="0 0 139 50">
  <defs>
    <clipPath id="clip-path">
      <rect id="Rectangle_14" data-name="Rectangle 14" width="139" height="50" fill="none"/>
    </clipPath>
  </defs>
  <g id="logo" style="isolation: isolate">
    <g id="Group_6" data-name="Group 6" clip-path="url(#clip-path)">
      <path id="Path_34" data-name="Path 34" d="M100.444,20.584c0-4.552,2.865-6.775,6.358-6.775,3.459,0,6.324,2.223,6.324,6.775V42.036a1.11,1.11,0,0,1-1.118,1.13h-1.747a1.139,1.139,0,0,1-1.153-1.13V32.228a.787.787,0,0,0-.8-.776h-3.04a.786.786,0,0,0-.8.776v9.809a1.109,1.109,0,0,1-1.117,1.13h-1.782a1.11,1.11,0,0,1-1.118-1.13Zm8.665.423c0-2.364-.8-3.387-2.306-3.387-1.467,0-2.341.953-2.341,3.387V26.97a.786.786,0,0,0,.8.776h3.04a.787.787,0,0,0,.8-.776Z" transform="translate(-43.39 -5.965)" fill="#1a1311"/>
      <path id="Path_35" data-name="Path 35" d="M137.191,28.956a1.185,1.185,0,0,1-1.258,1.129h-.349c-1.852,0-2.446.529-2.446,2.788v14.4c0,.53-.244,1.13-1.292,1.13h-1.5a1.11,1.11,0,0,1-1.118-1.13V27.334a1.281,1.281,0,0,1,1.327-1.376,1.783,1.783,0,0,1,1.118.458l.14.106a1.293,1.293,0,0,0,.769.282,5.054,5.054,0,0,0,1.642-.529,4.952,4.952,0,0,1,1.852-.353,1.109,1.109,0,0,1,1.118,1.129Z" transform="translate(-55.822 -11.198)" fill="#1a1311"/>
      <path id="Path_36" data-name="Path 36" d="M147.993,26.566a1.146,1.146,0,0,1-1.118-1.129V23.99a1.139,1.139,0,0,1,1.118-1.164h.489a.767.767,0,0,0,.769-.812V19.756a1.118,1.118,0,0,1,1.118-1.164h1.642a1.159,1.159,0,0,1,1.118,1.164v2.223a.832.832,0,0,0,.838.847H155.4a1.124,1.124,0,0,1,1.118,1.164v1.552a1.064,1.064,0,0,1-1.118,1.024h-1.433a.8.8,0,0,0-.838.776V39.8c0,1.024.524,1.659,1.467,1.659h.769a1.116,1.116,0,0,1,1.152,1.129V44.1a1.108,1.108,0,0,1-1.118,1.129h-1.083c-3.424,0-5.066-2.011-5.066-5.187v-12.7a.737.737,0,0,0-.769-.776Z" transform="translate(-63.447 -8.031)" fill="#1a1311"/>
      <path id="Path_37" data-name="Path 37" d="M177.228,28.956a1.185,1.185,0,0,1-1.258,1.129h-.349c-1.852,0-2.446.529-2.446,2.788v14.4c0,.53-.244,1.13-1.292,1.13h-1.5a1.11,1.11,0,0,1-1.118-1.13V27.334a1.281,1.281,0,0,1,1.327-1.376,1.783,1.783,0,0,1,1.118.458l.14.106a1.293,1.293,0,0,0,.769.282,5.054,5.054,0,0,0,1.642-.529,4.952,4.952,0,0,1,1.852-.353,1.109,1.109,0,0,1,1.118,1.129Z" transform="translate(-73.117 -11.198)" fill="#1a1311"/>
      <path id="Path_38" data-name="Path 38" d="M188.818,27.176a1.109,1.109,0,0,1,1.118-1.129h1.677a1.109,1.109,0,0,1,1.118,1.129V47.323a1.109,1.109,0,0,1-1.118,1.129h-1.677a1.109,1.109,0,0,1-1.118-1.129Z" transform="translate(-81.565 -11.252)" fill="#1a1311"/>
      <path id="Path_39" data-name="Path 39" d="M205.7,42.754a1.1,1.1,0,0,0-.769.282l-.14.106a1.96,1.96,0,0,1-1.083.424,1.264,1.264,0,0,1-1.363-1.412V15.373a1.11,1.11,0,0,1,1.118-1.129h1.677a1.109,1.109,0,0,1,1.118,1.129v3.493c0,.459-.035.706-.035,1.271a.916.916,0,0,0,.874.882c.49,0,1.118-.177,2.027-.177,3.145,0,5.59,2.4,5.59,6.669V36.9c0,4.658-2.935,6.7-5.626,6.7a5.89,5.89,0,0,1-1.956-.353,5.681,5.681,0,0,0-1.432-.494m5.1-6.387V27.934c0-2.4-.733-3.493-2.271-3.493s-2.271,1.094-2.271,3.493v8.433c0,2.47.7,3.493,2.306,3.493,1.538,0,2.236-1.023,2.236-3.493" transform="translate(-87.41 -6.153)" fill="#1a1311"/>
      <path id="Path_40" data-name="Path 40" d="M238.3,28.956a1.185,1.185,0,0,1-1.258,1.129h-.349c-1.852,0-2.446.529-2.446,2.788v14.4c0,.53-.244,1.13-1.292,1.13h-1.5a1.11,1.11,0,0,1-1.118-1.13V27.334a1.281,1.281,0,0,1,1.327-1.376,1.783,1.783,0,0,1,1.118.458l.14.106a1.293,1.293,0,0,0,.769.282,5.054,5.054,0,0,0,1.642-.529,4.952,4.952,0,0,1,1.852-.353,1.109,1.109,0,0,1,1.118,1.129Z" transform="translate(-99.498 -11.198)" fill="#1a1311"/>
      <path id="Path_41" data-name="Path 41" d="M106.751,80.78a.438.438,0,0,1,.327.136.456.456,0,0,1,.132.326v.126a.449.449,0,0,1-.132.329.443.443,0,0,1-.327.133h-2.135c-.031,0-.047.014-.047.039a.305.305,0,0,1-.09.224.3.3,0,0,1-.221.09h-.3a.46.46,0,0,1-.458-.463V78.16a.14.14,0,0,0-.039-.1l-.093-.094a.016.016,0,0,0-.023-.008.026.026,0,0,0-.015.024v.031a.439.439,0,0,1-.132.322.432.432,0,0,1-.318.133.055.055,0,0,0-.062.062v2.479a1.8,1.8,0,0,1-.085.624.67.67,0,0,1-.3.348,2.042,2.042,0,0,1-.816.2h-.039a.472.472,0,0,1-.311-.118.66.66,0,0,1-.218-.322c-.02-.057-.039-.115-.054-.172a.32.32,0,0,1-.023-.11.338.338,0,0,1,.054-.181.288.288,0,0,1,.241-.126h.334a.186.186,0,0,0,.12-.031.158.158,0,0,0,.035-.118V79.179c0-.01,0-.015-.011-.015s-.012,0-.012.008a8.775,8.775,0,0,1-1.242,2.056.285.285,0,0,1-.226.11.153.153,0,0,1-.047-.009.338.338,0,0,1-.256-.164c-.052-.089-.1-.173-.155-.251a.579.579,0,0,1-.086-.306V80.56a.543.543,0,0,1,.148-.337,6.189,6.189,0,0,0,1.072-1.7.033.033,0,0,0,0-.034.037.037,0,0,0-.035-.02h-.7a.442.442,0,0,1-.326-.133A.449.449,0,0,1,99.746,78v-.181a.449.449,0,0,1,.132-.329.44.44,0,0,1,.326-.133h.015c.036,0,.055-.021.055-.062V76a.042.042,0,0,0-.047-.048.352.352,0,0,1-.264-.113.367.367,0,0,1-.108-.263v-.212a.46.46,0,0,1,.458-.463H102.8a.442.442,0,0,1,.327.133.448.448,0,0,1,.132.329v.2a.383.383,0,0,1-.112.274.356.356,0,0,1-.268.118c-.036,0-.055.016-.055.048v1.231a.019.019,0,0,0,.016.02.023.023,0,0,0,.023,0,7.383,7.383,0,0,0,1.1-2.251.465.465,0,0,1,.45-.345.448.448,0,0,1,.116.015l.226.055a.433.433,0,0,1,.279.212.439.439,0,0,1,.055.2.447.447,0,0,1-.023.141q-.1.315-.249.7a.034.034,0,0,0,0,.035.038.038,0,0,0,.035.02h.381a.072.072,0,0,0,.078-.055q.156-.447.264-.887a.5.5,0,0,1,.2-.29.464.464,0,0,1,.241-.07.626.626,0,0,1,.1.007l.249.055a.4.4,0,0,1,.264.2.429.429,0,0,1,.047.2.441.441,0,0,1-.023.141c-.1.266-.181.484-.248.652a.034.034,0,0,0,0,.035.032.032,0,0,0,.027.02h.233a.442.442,0,0,1,.326.133.453.453,0,0,1,.132.329v.11a.457.457,0,0,1-.132.327.437.437,0,0,1-.326.136H106.3c-.041,0-.062.019-.062.056v.447a.054.054,0,0,0,.062.062h.241a.461.461,0,0,1,.458.464v.047a.447.447,0,0,1-.136.325.437.437,0,0,1-.323.137H106.3c-.041,0-.062.019-.062.056v.478c0,.037.02.055.062.055h.241a.442.442,0,0,1,.323.137.449.449,0,0,1,.136.327V79.7a.459.459,0,0,1-.458.462H106.3a.055.055,0,0,0-.062.063v.5c0,.037.02.056.062.056Zm-5.4-4.833A.049.049,0,0,0,101.3,76V77.3c0,.041.018.062.054.062h.342a.055.055,0,0,0,.062-.062V76c0-.037-.02-.056-.062-.056Zm3.767,1.678c.036,0,.055-.02.055-.062v-.447a.049.049,0,0,0-.055-.056h-.489c-.041,0-.062.019-.062.056v.447a.054.054,0,0,0,.062.062Zm0,1.561a.048.048,0,0,0,.055-.055v-.478a.049.049,0,0,0-.055-.056h-.489c-.041,0-.062.019-.062.056v.478c0,.037.02.055.062.055Zm-.489.973a.055.055,0,0,0-.062.063v.5c0,.037.02.056.062.056h.489a.049.049,0,0,0,.055-.056v-.5q0-.063-.055-.063Z" transform="translate(-43.078 -32.245)" fill="#1a1311"/>
      <path id="Path_42" data-name="Path 42" d="M118.682,79.3c-.041,0-.062.019-.062.056v1.121a.072.072,0,0,0,.054.078,5,5,0,0,0,1.717.22q2.182,0,2.9-.016h.008a.247.247,0,0,1,.218.118.309.309,0,0,1,.047.158.345.345,0,0,1-.023.118c-.036.093-.073.193-.109.3a.651.651,0,0,1-.221.322.572.572,0,0,1-.361.125h-2.477a6.453,6.453,0,0,1-1.895-.227,2.37,2.37,0,0,1-1.2-.871.033.033,0,0,0-.023-.008.026.026,0,0,0-.023.015,6.252,6.252,0,0,1-.264.879.272.272,0,0,1-.225.165H116.7a.3.3,0,0,1-.226-.1.775.775,0,0,1-.07-.064.67.67,0,0,1-.2-.321.575.575,0,0,1-.031-.18.632.632,0,0,1,.031-.2,6.95,6.95,0,0,0,.264-2.095v-.36a.41.41,0,0,1,.124-.3.393.393,0,0,1,.287-.127h.047a.5.5,0,0,1,.33.158.492.492,0,0,1,.144.329v.353a.282.282,0,0,0,.023.11,2.893,2.893,0,0,0,.179.463c0,.006,0,.007.011.007s.012-.005.012-.015V77.784c0-.042-.019-.063-.055-.063h-.816a.46.46,0,0,1-.458-.463v-.094a.446.446,0,0,1,.136-.325.436.436,0,0,1,.322-.137h.621a.049.049,0,0,0,.055-.056V76.27a.048.048,0,0,0-.055-.055h-.442a.437.437,0,0,1-.326-.137.453.453,0,0,1-.132-.326v-.078a.448.448,0,0,1,.132-.329.441.441,0,0,1,.326-.133h.442c.036,0,.055-.021.055-.064v-.219a.448.448,0,0,1,.136-.325.437.437,0,0,1,.323-.137h.116a.436.436,0,0,1,.322.137.448.448,0,0,1,.136.325v.219c0,.043.018.064.055.064h.544a.049.049,0,0,0,.055-.056.409.409,0,0,1,.116-.294.383.383,0,0,1,.287-.122h2.966a.439.439,0,0,1,.327.137.453.453,0,0,1,.132.326v.047a.448.448,0,0,1-.132.329.443.443,0,0,1-.327.133h-.878c-.036,0-.054.022-.054.064v.235a.048.048,0,0,0,.054.055h1.1a2.186,2.186,0,0,1,.6.063.346.346,0,0,1,.194.149.363.363,0,0,1,.062.2v.039A10.719,10.719,0,0,1,123.016,79a.1.1,0,0,0,.008.1,3.01,3.01,0,0,0,.411.5.448.448,0,0,1,.132.329.44.44,0,0,1-.109.3l-.054.055a.406.406,0,0,1-.3.164.134.134,0,0,1-.047.008.337.337,0,0,1-.256-.118,2.835,2.835,0,0,1-.241-.3.03.03,0,0,0-.031-.016c-.015,0-.026,0-.031.016-.052.073-.1.143-.156.212a.311.311,0,0,1-.241.118h-.039a.382.382,0,0,1-.279-.165c-.067-.089-.132-.17-.194-.243a.022.022,0,0,0-.023,0,.019.019,0,0,0-.015.02v.243a.438.438,0,0,1-.132.322.446.446,0,0,1-.637,0,.439.439,0,0,1-.132-.322v-.179c0-.037-.019-.05-.055-.04l-.994.244a.871.871,0,0,1-.108.008.453.453,0,0,1-.233-.071.441.441,0,0,1-.194-.291l-.016-.11a.452.452,0,0,1-.007-.078.363.363,0,0,1,.062-.2.337.337,0,0,1,.241-.157.049.049,0,0,0,.047-.055V75.776c0-.042-.018-.064-.055-.064h-.155a.049.049,0,0,0-.055.056.434.434,0,0,1-.128.318.425.425,0,0,1-.314.13h-.171a.048.048,0,0,0-.055.055v.376a.049.049,0,0,0,.055.056h.264a.435.435,0,0,1,.322.137.446.446,0,0,1,.136.325v.094a.46.46,0,0,1-.458.463h-.1a.055.055,0,0,0-.062.063v.447a.055.055,0,0,0,.062.062h.062a.46.46,0,0,1,.458.463v.079a.447.447,0,0,1-.136.325.437.437,0,0,1-.323.137Zm1.918-3.091c.036,0,.055-.02.055-.062v-.368c0-.042-.019-.064-.055-.064h-.256a.056.056,0,0,0-.062.064v.368a.055.055,0,0,0,.062.062Zm0,1.373c.036,0,.055-.022.055-.064v-.384c0-.042-.019-.063-.055-.063h-.256a.056.056,0,0,0-.062.063v.384a.056.056,0,0,0,.062.064Zm-.319,1.529c0,.042.019.058.055.048l.264-.048a.067.067,0,0,0,.055-.07v-.534c0-.042-.019-.063-.055-.063h-.256a.056.056,0,0,0-.062.063Zm2.283-2.078c.005-.037-.012-.056-.055-.056h-.9a.049.049,0,0,0-.054.056v.18c0,.042.018.058.054.048l.132-.031a.441.441,0,0,1,.116-.017.451.451,0,0,1,.233.071.49.49,0,0,1,.218.283c.026.078.052.155.078.228,0,0,0,.007.015.007a.014.014,0,0,0,.015-.015c.057-.236.106-.487.148-.753m-.994.8a.007.007,0,0,0-.008-.008s-.007,0-.007.008v1.75a.025.025,0,0,0,.015.023.015.015,0,0,0,.023-.008,3.976,3.976,0,0,0,.365-.541.136.136,0,0,0,0-.11,8.647,8.647,0,0,1-.389-1.114" transform="translate(-50.185 -32.168)" fill="#1a1311"/>
      <path id="Path_43" data-name="Path 43" d="M135.31,77.015a.46.46,0,0,1-.458.463h-.21a.055.055,0,0,0-.062.062v4.095a.448.448,0,0,1-.132.329.443.443,0,0,1-.326.133h-.21a.46.46,0,0,1-.458-.463V77.54c0-.041-.018-.062-.055-.062h-.287a.44.44,0,0,1-.326-.133.448.448,0,0,1-.132-.329V76.89a.456.456,0,0,1,.132-.327.438.438,0,0,1,.326-.137h.287a.048.048,0,0,0,.055-.054V74.929a.447.447,0,0,1,.136-.325.436.436,0,0,1,.322-.137h.21a.433.433,0,0,1,.326.137.452.452,0,0,1,.132.325v1.443c0,.036.02.054.062.054h.21a.44.44,0,0,1,.322.137.45.45,0,0,1,.136.327Zm4.45,2.321a.432.432,0,0,1,.319.135.466.466,0,0,1,0,.65.43.43,0,0,1-.319.134h-.59c-.041,0-.062.018-.062.055v.776a1.5,1.5,0,0,1-.085.573.588.588,0,0,1-.319.3,2.333,2.333,0,0,1-.8.148h-.023a.493.493,0,0,1-.326-.125.656.656,0,0,1-.218-.322q-.07-.211-.156-.416c-.015-.031-.039-.037-.07-.016l-.163.126a.419.419,0,0,1-.256.086.361.361,0,0,1-.078-.007.5.5,0,0,1-.3-.181c-.093-.114-.2-.235-.318-.36a.377.377,0,0,1-.117-.274.354.354,0,0,1,.164-.314l.015-.016a.018.018,0,0,0,0-.02c0-.008-.007-.011-.012-.011h-.574a.43.43,0,0,1-.319-.134.466.466,0,0,1,0-.65.432.432,0,0,1,.319-.135h2.477c.041,0,.062-.018.062-.054v-.157a.055.055,0,0,0-.062-.063h-1.988a.46.46,0,0,1-.458-.463V76.89a.45.45,0,0,1,.136-.327.442.442,0,0,1,.323-.137h1.064c.041,0,.062-.018.062-.054v-.126c0-.037-.02-.056-.062-.056H135.6a.419.419,0,0,1-.314-.133.44.44,0,0,1-.128-.318.429.429,0,0,1,.128-.314.425.425,0,0,1,.314-.13h1.429a.054.054,0,0,0,.062-.062v-.306a.445.445,0,0,1,.136-.325.435.435,0,0,1,.322-.137h.178a.435.435,0,0,1,.327.137.452.452,0,0,1,.132.325v.306a.054.054,0,0,0,.062.062h.552c.005,0,.009,0,.012-.011a.02.02,0,0,0,0-.02c-.036-.021-.07-.042-.1-.062a.308.308,0,0,1-.155-.22.266.266,0,0,1-.008-.063.287.287,0,0,1,.078-.2.489.489,0,0,1,.272-.172.724.724,0,0,1,.1-.007.481.481,0,0,1,.218.054c.129.068.251.137.365.2a.263.263,0,0,1,.14.212.234.234,0,0,1,.008.055.321.321,0,0,1-.07.2.015.015,0,0,0,0,.02c.005.008.011.011.015.011h.023a.425.425,0,0,1,.315.13.432.432,0,0,1,.128.314.442.442,0,0,1-.128.318.42.42,0,0,1-.315.133h-1.444c-.041,0-.062.019-.062.056v.126c0,.036.02.054.062.054h1.165a.437.437,0,0,1,.326.137.454.454,0,0,1,.132.327V78.6a.447.447,0,0,1-.132.329.44.44,0,0,1-.326.133h-.241a.055.055,0,0,0-.062.063v.157c0,.036.02.054.062.054Zm-3.176-2.172c-.042,0-.062.019-.062.056v.125c0,.037.02.055.062.055h.442c.041,0,.062-.018.062-.055V77.22c0-.037-.02-.056-.062-.056Zm0,.917a.056.056,0,0,0-.062.064v.133c0,.036.02.055.062.055h.442c.041,0,.062-.018.062-.055v-.133a.055.055,0,0,0-.062-.064Zm1.429,2.974v-.746c0-.036-.02-.055-.062-.055h-1.188c-.011,0-.016,0-.019.011a.036.036,0,0,0,0,.028,7.039,7.039,0,0,1,.52.533.19.19,0,0,1,.047.164.216.216,0,0,1-.093.149v.016a.007.007,0,0,0,.007.008h.645a.219.219,0,0,0,.109-.02c.02-.014.031-.043.031-.09m.792-3.835a.049.049,0,0,0-.055-.056h-.5c-.041,0-.062.019-.062.056v.125c0,.037.02.055.062.055h.5a.048.048,0,0,0,.055-.055Zm-.621,1.058c0,.036.02.055.062.055h.5a.048.048,0,0,0,.055-.055v-.133c0-.043-.018-.064-.055-.064h-.5a.055.055,0,0,0-.062.064Z" transform="translate(-57.304 -32.168)" fill="#1a1311"/>
      <path id="Path_44" data-name="Path 44" d="M153.675,80.084q-.055,0-.055.063V80.8c0,.041.018.062.055.062H156a.441.441,0,0,1,.326.133.451.451,0,0,1,.132.329v.11a.455.455,0,0,1-.132.326A.436.436,0,0,1,156,81.9h-5.886a.436.436,0,0,1-.326-.136.455.455,0,0,1-.132-.326v-.11a.451.451,0,0,1,.132-.329.441.441,0,0,1,.326-.133h2.221c.036,0,.055-.021.055-.062v-.651q0-.063-.055-.063h-1.584a.44.44,0,0,1-.326-.133.447.447,0,0,1-.132-.329v-.077a.453.453,0,0,1,.132-.327.437.437,0,0,1,.326-.137h1.584a.048.048,0,0,0,.055-.055V78.4c0-.041-.018-.062-.055-.062h-1.157a.461.461,0,0,1-.458-.463v-.134a.031.031,0,0,0-.047-.031c-.135.089-.269.176-.4.258a.484.484,0,0,1-.233.063.427.427,0,0,1-.116-.015.531.531,0,0,1-.3-.2c-.057-.079-.114-.154-.171-.228a.346.346,0,0,1-.085-.227.331.331,0,0,1,.007-.071.339.339,0,0,1,.171-.258A8.065,8.065,0,0,0,150.973,76a7.741,7.741,0,0,0,1.118-1.216.849.849,0,0,1,.714-.384h.3a.9.9,0,0,1,.73.376,7.433,7.433,0,0,0,2.695,2.188.334.334,0,0,1,.186.236.529.529,0,0,1,.008.085.322.322,0,0,1-.078.212c-.073.094-.145.2-.218.314a.484.484,0,0,1-.295.212.451.451,0,0,1-.116.015.5.5,0,0,1-.233-.062q-.194-.118-.389-.252a.042.042,0,0,0-.031,0,.033.033,0,0,0-.015.032v.118a.46.46,0,0,1-.458.463h-1.211c-.036,0-.055.021-.055.062v.628a.048.048,0,0,0,.055.055h1.607a.438.438,0,0,1,.326.137.455.455,0,0,1,.132.327v.077a.448.448,0,0,1-.132.329.44.44,0,0,1-.326.133Zm-2.4-2.8c-.011.006-.014.012-.012.02a.019.019,0,0,0,.02.012h3.479a.018.018,0,0,0,.019-.012c0-.008,0-.014-.012-.02a8.743,8.743,0,0,1-1.739-1.694.032.032,0,0,0-.031-.016.053.053,0,0,0-.039.016,8.222,8.222,0,0,1-1.685,1.694" transform="translate(-64.522 -32.138)" fill="#1a1311"/>
      <path id="Path_45" data-name="Path 45" d="M172.536,78.538a.491.491,0,0,1-.319.189.332.332,0,0,1-.1.016.574.574,0,0,1-.272-.07c-.005-.006-.011,0-.015,0a.037.037,0,0,0-.008.02,4.35,4.35,0,0,0,1.219,1.592.388.388,0,0,1,.14.314.416.416,0,0,1-.109.282l-.14.173a.432.432,0,0,1-.279.179.362.362,0,0,1-.078.008.369.369,0,0,1-.233-.085,5.644,5.644,0,0,1-.963-1.137.018.018,0,0,0-.02,0c-.007,0-.011.007-.011.012v.784a1.941,1.941,0,0,1-.089.659.743.743,0,0,1-.323.377,1.928,1.928,0,0,1-.854.219.077.077,0,0,1-.031.008.469.469,0,0,1-.311-.118.711.711,0,0,1-.226-.322c-.026-.083-.054-.168-.085-.251a.342.342,0,0,1-.023-.118.318.318,0,0,1,.047-.165.276.276,0,0,1,.241-.126h.373a.183.183,0,0,0,.124-.035.169.169,0,0,0,.039-.129V76.892a.049.049,0,0,0-.054-.056h-1.266a.432.432,0,0,1-.326-.137.451.451,0,0,1-.132-.325v-.2a.055.055,0,0,0-.062-.062h-.613c-.036,0-.055.021-.055.062v1.043c0,.041.018.062.055.062h.194a.459.459,0,0,1,.458.462v.141a.462.462,0,0,1-.458.464h-.194c-.036,0-.055.02-.055.062v1.043a.041.041,0,0,0,.016.036.065.065,0,0,0,.039.012l.264-.079a.517.517,0,0,1,.116-.015.393.393,0,0,1,.218.071.381.381,0,0,1,.178.282l.008.031c.005.042.026.053.062.032q.419-.243.846-.487a.381.381,0,0,1,.194-.055.425.425,0,0,1,.132.023.378.378,0,0,1,.233.235l.031.087a.584.584,0,0,1,.039.212.508.508,0,0,1-.031.172.546.546,0,0,1-.225.322q-.482.337-.994.674a.417.417,0,0,1-.233.071.4.4,0,0,1-.108-.015.425.425,0,0,1-.272-.212l-.179-.314a.052.052,0,0,0-.078-.031q-.785.243-1.654.509a.394.394,0,0,1-.132.024.476.476,0,0,1-.218-.056.43.43,0,0,1-.21-.282l-.055-.2a.5.5,0,0,1-.015-.118.452.452,0,0,1,.062-.227.433.433,0,0,1,.279-.2q.273-.063.513-.133a.069.069,0,0,0,.054-.071V78.4c0-.042-.018-.062-.054-.062h-.279a.462.462,0,0,1-.458-.464v-.141a.459.459,0,0,1,.458-.462h.279c.036,0,.054-.021.054-.062V76.17c0-.041-.018-.062-.054-.062h-.319a.439.439,0,0,1-.326-.134.449.449,0,0,1-.132-.329v-.149a.451.451,0,0,1,.132-.325.433.433,0,0,1,.326-.137h1.81a.433.433,0,0,1,.326.137.451.451,0,0,1,.132.325v.22c0,.036.021.055.062.055h1.615a.048.048,0,0,0,.054-.055v-.8a.447.447,0,0,1,.136-.325.438.438,0,0,1,.323-.137h.2a.437.437,0,0,1,.323.137.447.447,0,0,1,.136.325v.8a.049.049,0,0,0,.055.055h.846a.024.024,0,0,0,.023-.016.015.015,0,0,0-.008-.023,3.826,3.826,0,0,0-.419-.391.383.383,0,0,1-.14-.306.352.352,0,0,1,.116-.266.517.517,0,0,1,.326-.142h.039a.5.5,0,0,1,.295.094c.114.089.223.175.326.26a.4.4,0,0,1,.14.313.437.437,0,0,1-.14.329l-.109.11a.037.037,0,0,0,0,.028.018.018,0,0,0,.019.012h.078a.435.435,0,0,1,.326.137.456.456,0,0,1,.132.326v.141a.451.451,0,0,1-.132.325.433.433,0,0,1-.326.137H171.4a.049.049,0,0,0-.055.056v.149a.981.981,0,0,0,.008.118q.116.534.24.949c.005.016.013.024.024.024a.045.045,0,0,0,.031-.016c.151-.225.287-.45.412-.674a.451.451,0,0,1,.264-.228.48.48,0,0,1,.147-.024.468.468,0,0,1,.2.048l.194.1a.356.356,0,0,1,.2.258.583.583,0,0,1,.008.094.369.369,0,0,1-.078.228q-.279.384-.466.619m-2.656-.486a.42.42,0,0,1,.047.189.511.511,0,0,1-.031.172.48.48,0,0,1-.256.26l-.116.054a.382.382,0,0,1-.163.039.348.348,0,0,1-.163-.039.424.424,0,0,1-.241-.243c-.078-.183-.171-.374-.279-.573a.4.4,0,0,1-.031-.337.4.4,0,0,1,.225-.252l.054-.023a.5.5,0,0,1,.21-.047.61.61,0,0,1,.163.023.478.478,0,0,1,.287.227,4.877,4.877,0,0,1,.3.549" transform="translate(-71.576 -32.162)" fill="#1a1311"/>
      <path id="Path_46" data-name="Path 46" d="M189.682,76.1a.446.446,0,0,1-.136.325.435.435,0,0,1-.322.137H185.5a.087.087,0,0,0-.085.047c-.047.094-.109.215-.186.362a.042.042,0,0,0,0,.035.03.03,0,0,0,.031.019h3.1a.443.443,0,0,1,.326.133.453.453,0,0,1,.132.329v3.475a1.8,1.8,0,0,1-.1.663.69.69,0,0,1-.353.364,2.448,2.448,0,0,1-.978.189h-.023a.493.493,0,0,1-.327-.126.613.613,0,0,1-.21-.322c-.02-.083-.044-.164-.07-.243a.282.282,0,0,1-.023-.11.271.271,0,0,1,.062-.173.264.264,0,0,1,.233-.133h.007c.145.005.3.007.474.007.119,0,.179-.047.179-.141V80.7c0-.036-.02-.054-.062-.054h-2.516a.048.048,0,0,0-.055.054v.988a.459.459,0,0,1-.458.463h-.233a.459.459,0,0,1-.458-.463V78.908a.027.027,0,0,0-.012-.023c-.008-.006-.016,0-.027.008a5.52,5.52,0,0,1-.481.447.413.413,0,0,1-.264.1.32.32,0,0,1-.07-.008.5.5,0,0,1-.311-.181c-.057-.068-.116-.136-.179-.2a.4.4,0,0,1-.1-.266v-.039a.4.4,0,0,1,.155-.291,6.125,6.125,0,0,0,1.476-1.844.021.021,0,0,0,0-.031.035.035,0,0,0-.027-.016h-1.1a.435.435,0,0,1-.322-.137.445.445,0,0,1-.136-.325v-.173a.446.446,0,0,1,.136-.325.44.44,0,0,1,.322-.137h1.584a.072.072,0,0,0,.078-.055q.078-.211.14-.44a.5.5,0,0,1,.225-.283.464.464,0,0,1,.241-.07.7.7,0,0,1,.109.008l.3.07a.412.412,0,0,1,.272.2.4.4,0,0,1,.062.2.332.332,0,0,1-.031.133c-.015.058-.034.115-.055.173a.039.039,0,0,0,.039.055h3.285a.44.44,0,0,1,.322.137.447.447,0,0,1,.136.325Zm-2.058,2.274a.055.055,0,0,0,.062-.062v-.219c0-.037-.02-.056-.062-.056h-2.516a.049.049,0,0,0-.055.056v.219c0,.041.018.062.055.062Zm-2.57,1.247q0,.063.055.063h2.516a.055.055,0,0,0,.062-.063v-.227c0-.037-.02-.055-.062-.055h-2.516a.048.048,0,0,0-.055.055Z" transform="translate(-78.819 -32.233)" fill="#1a1311"/>
      <path id="Path_47" data-name="Path 47" d="M201.213,75.061a.271.271,0,0,1,.085-.015.328.328,0,0,1,.179.054l.264.15a.585.585,0,0,1,.257.282.676.676,0,0,1,.039.228.562.562,0,0,1-.023.157q-.326,1.191-.528,1.772a.124.124,0,0,0,.023.11,2.565,2.565,0,0,1,.49,1.546,1.314,1.314,0,0,1-.4,1.129,1.116,1.116,0,0,1-.482.189.262.262,0,0,1-.07.008.134.134,0,0,1-.047.008.4.4,0,0,1-.279-.118.59.59,0,0,1-.186-.329,2.881,2.881,0,0,0-.093-.345c0-.006,0-.007-.008-.007s-.008,0-.008.007v2.008a.46.46,0,0,1-.458.463h-.156a.44.44,0,0,1-.326-.133.448.448,0,0,1-.132-.329V75.532a.449.449,0,0,1,.132-.329.442.442,0,0,1,.326-.133h1.367a.117.117,0,0,0,.039-.008m-.738,1.043a.049.049,0,0,0-.055.056V79.6a.048.048,0,0,0,.055.055h.14a.354.354,0,0,0,.218-.064.5.5,0,0,0,.124-.407,1.988,1.988,0,0,0-.233-.933,1.364,1.364,0,0,1-.163-.612,1.07,1.07,0,0,1,.023-.22q.133-.557.272-1.262c.005-.037-.011-.056-.047-.056Zm5.133,2.84c-.005,0-.009,0-.011.011a.019.019,0,0,0,0,.02l.458.322a.357.357,0,0,1,.163.314.353.353,0,0,1-.116.266q-.3.283-.582.525a.054.054,0,0,0-.008.086,2.79,2.79,0,0,0,.683.628.388.388,0,0,1,.171.258v.071a.4.4,0,0,1-.078.235c-.067.079-.132.162-.194.251a.515.515,0,0,1-.295.212.38.38,0,0,1-.109.015.392.392,0,0,1-.233-.078,3.478,3.478,0,0,1-1.041-1.235A7.394,7.394,0,0,1,203.791,79a.067.067,0,0,0-.07-.055h-.3c-.036,0-.054.021-.054.062V80.74c0,.041.018.058.054.047l.427-.071a.452.452,0,0,1,.078-.008.4.4,0,0,1,.256.094.4.4,0,0,1,.163.3l.008.086v.055a.544.544,0,0,1-.412.518q-.683.157-1.654.368a.75.75,0,0,1-.116.008.5.5,0,0,1-.248-.07.488.488,0,0,1-.233-.283l-.085-.258a.368.368,0,0,1-.023-.126.346.346,0,0,1,.062-.2.354.354,0,0,1,.264-.181c.109-.015.2-.029.279-.039a.058.058,0,0,0,.055-.064V75.548a.459.459,0,0,1,.458-.463h2.873a.459.459,0,0,1,.458.463v2.973a.427.427,0,0,1-.427.424m-.722-2.808a.049.049,0,0,0-.055-.056h-1.406a.049.049,0,0,0-.054.056v.329c0,.041.018.062.054.062h1.406c.036,0,.055-.021.055-.062Zm-1.46,1.333a.048.048,0,0,0-.054.055v.368a.049.049,0,0,0,.054.056h1.406a.049.049,0,0,0,.055-.056v-.368a.048.048,0,0,0-.055-.055Zm2.066,1.521a.034.034,0,0,0,0-.031.024.024,0,0,0-.023-.015h-.629a.051.051,0,0,0-.039.019.033.033,0,0,0-.007.036,3.871,3.871,0,0,0,.186.533c.015.037.036.039.062.008a6.966,6.966,0,0,0,.45-.549" transform="translate(-86.114 -32.418)" fill="#1a1311"/>
      <path id="Path_48" data-name="Path 48" d="M217.391,75.243a.522.522,0,0,1,.249-.266.5.5,0,0,1,.225-.055.429.429,0,0,1,.14.023l.45.126a.4.4,0,0,1,.256.22.393.393,0,0,1,.039.164.358.358,0,0,1-.039.164,9.723,9.723,0,0,1-1.623,2.519.428.428,0,0,1-.326.141h-.016a.489.489,0,0,1-.326-.118c-.129-.1-.264-.208-.4-.314a.344.344,0,0,1-.147-.29.354.354,0,0,1,.116-.267,6.362,6.362,0,0,0,1.405-2.047m2.85,4.527a.371.371,0,0,1-.07-.212.4.4,0,0,1,.015-.11.379.379,0,0,1,.21-.252l.3-.133a.535.535,0,0,1,.233-.055.721.721,0,0,1,.148.015.521.521,0,0,1,.311.212,17.176,17.176,0,0,1,1.289,2.047.442.442,0,0,1,.055.212.485.485,0,0,1-.249.416l-.4.211a.4.4,0,0,1-.186.048.522.522,0,0,1-.148-.023.46.46,0,0,1-.256-.236c-.02-.047-.044-.1-.07-.149a.1.1,0,0,0-.085-.047q-1.833.133-4.7.3h-.039a.466.466,0,0,1-.3-.11.475.475,0,0,1-.179-.322l-.039-.322V81.2a.4.4,0,0,1,.1-.266.384.384,0,0,1,.3-.157c.253-.006.456-.013.605-.024a.085.085,0,0,0,.086-.054,16.891,16.891,0,0,0,1.126-2.644.49.49,0,0,1,.226-.282.452.452,0,0,1,.24-.071.526.526,0,0,1,.117.015l.5.126a.353.353,0,0,1,.256.2.365.365,0,0,1,.047.173.348.348,0,0,1-.039.157,23.416,23.416,0,0,1-1.134,2.266.031.031,0,0,0,0,.032.035.035,0,0,0,.027.015q.762-.032,2.166-.1a.077.077,0,0,0,.027-.023.022.022,0,0,0,0-.032q-.24-.408-.481-.768m-.218-4.048a.388.388,0,0,1-.055-.2.459.459,0,0,1,.023-.142.4.4,0,0,1,.233-.243l.319-.126a.487.487,0,0,1,.186-.039.514.514,0,0,1,.179.031.552.552,0,0,1,.279.243,10.328,10.328,0,0,0,1.468,1.882.412.412,0,0,1,.124.3.455.455,0,0,1-.14.329,4.546,4.546,0,0,0-.349.361.4.4,0,0,1-.295.141h-.016a.36.36,0,0,1-.279-.133,16.721,16.721,0,0,1-1.677-2.408" transform="translate(-93.251 -32.364)" fill="#1a1311"/>
      <path id="Path_49" data-name="Path 49" d="M238.677,75.294a.46.46,0,0,1,.458.463v5.3a2.17,2.17,0,0,1-.105.757.8.8,0,0,1-.377.419,2.689,2.689,0,0,1-1.141.22H237.5a.5.5,0,0,1-.334-.126.594.594,0,0,1-.194-.329,3.522,3.522,0,0,0-.117-.376.385.385,0,0,1-.015-.1.3.3,0,0,1,.062-.181.269.269,0,0,1,.233-.126s.007,0,.007.008h.606a.227.227,0,0,0,.151-.039.2.2,0,0,0,.043-.149V76.464c0-.042-.018-.063-.054-.063h-4.97a.442.442,0,0,1-.326-.133.447.447,0,0,1-.132-.329v-.181a.45.45,0,0,1,.132-.329.44.44,0,0,1,.326-.133Zm-1.934,1.522a.436.436,0,0,1,.326.136.455.455,0,0,1,.132.326v.087a.451.451,0,0,1-.132.329.441.441,0,0,1-.326.133H233a.459.459,0,0,1-.458-.462v-.087a.451.451,0,0,1,.136-.326.439.439,0,0,1,.322-.136Zm.116,3.812a.449.449,0,0,1-.132.329.443.443,0,0,1-.327.133h-2.314c-.036,0-.054.022-.054.062v.055a.447.447,0,0,1-.136.325.435.435,0,0,1-.322.137h-.218a.435.435,0,0,1-.322-.137.447.447,0,0,1-.136-.325v-2.47a.461.461,0,0,1,.458-.463H236.4a.444.444,0,0,1,.327.133.448.448,0,0,1,.132.329Zm-1.134-1.3c0-.036-.02-.055-.062-.055h-1.577a.048.048,0,0,0-.054.055v.713a.048.048,0,0,0,.054.056h1.577c.041,0,.062-.018.062-.056Z" transform="translate(-100.416 -32.525)" fill="#1a1311"/>
      <path id="Path_50" data-name="Path 50" d="M50.256,65.267a4.168,4.168,0,0,0-.446-1.349L40.947,47.1a2.148,2.148,0,0,0-3-.844L27.9,52.239,25.147,53.88l-12.8-7.627a2.147,2.147,0,0,0-3,.844L.486,63.918a4.031,4.031,0,0,0,5.63,5.342l19.032-11.34L44.18,69.259a4.045,4.045,0,0,0,6.043-2.695q.031-.156.049-.316c.012-.106.02-.214.023-.322a3.876,3.876,0,0,0-.039-.66m-30.389-9L5.585,64.771a.42.42,0,0,1-.219.066A.443.443,0,0,1,5,64.616a.386.386,0,0,1,0-.4L11.821,51.26a.421.421,0,0,1,.588-.167l7.458,4.444a.422.422,0,0,1,0,.724M45.3,64.616a.446.446,0,0,1-.368.222.42.42,0,0,1-.219-.066l-14.282-8.51a.422.422,0,0,1,0-.724l7.458-4.444a.41.41,0,0,1,.214-.06.423.423,0,0,1,.375.226L45.3,64.213a.387.387,0,0,1,0,.4" transform="translate(0 -19.849)" fill="#1a1311"/>
      <path id="Path_51" data-name="Path 51" d="M188.818,15.373a1.109,1.109,0,0,1,1.118-1.129h1.677a1.109,1.109,0,0,1,1.118,1.129V17.1a1.109,1.109,0,0,1-1.118,1.129h-1.677a1.109,1.109,0,0,1-1.118-1.129Z" transform="translate(-81.565 -6.153)" fill="#ec6700"/>
      <path id="Path_52" data-name="Path 52" d="M36.1,29.495l9.9-5.9a2.58,2.58,0,0,0,.962-3.419l-9.9-18.8a2.579,2.579,0,0,0-4.565,0l-9.9,18.8a2.579,2.579,0,0,0,.962,3.419l9.9,5.9a2.579,2.579,0,0,0,2.641,0" transform="translate(-9.631 0)" fill="#f89400"/>
      <path id="Path_53" data-name="Path 53" d="M36.1,29.495l9.9-5.9a2.58,2.58,0,0,0,.962-3.419l-9.9-18.8a2.579,2.579,0,0,0-4.565,0l-9.9,18.8a2.579,2.579,0,0,0,.962,3.419l9.9,5.9a2.579,2.579,0,0,0,2.641,0" transform="translate(-9.631 0)" fill="#ec6700"/>
      <path id="Path_54" data-name="Path 54" d="M34.778,0A2.552,2.552,0,0,0,32.5,1.377l-9.9,18.8a2.579,2.579,0,0,0,.962,3.418l9.9,5.9a2.577,2.577,0,0,0,1.321.364Z" transform="translate(-9.631)" fill="#f89400"/>
    </g>
  </g>
</svg>
