<svg xmlns="http://www.w3.org/2000/svg" xmlns:xlink="http://www.w3.org/1999/xlink" width="225" height="85" viewBox="0 0 225 85">
  <defs>
    <clipPath id="clip-path">
      <rect id="Rectangle_13" data-name="Rectangle 13" width="186.517" height="84.674" fill="none"/>
    </clipPath>
  </defs>
  <g id="logo3" transform="translate(-1570 -2196)">
    <g id="Group_92" data-name="Group 92" transform="translate(1590 2196)" style="isolation: isolate">
      <path id="Path_22" data-name="Path 22" d="M143.827,47.2h3.12l1.441,15.833h.059l1.53-15.833h3.532l1.53,15.833h.059L156.54,47.2h2.8l-2.089,20.6h-4.031l-1.472-13.89h-.059L150.212,67.8h-4.3Z" transform="translate(-25.905 -8.501)" fill="#474645"/>
      <rect id="Rectangle_11" data-name="Rectangle 11" width="3.237" height="20.6" transform="translate(135.079 38.697)" fill="#474645"/>
      <path id="Path_23" data-name="Path 23" d="M171.643,47.2H175.7l3.149,12.33h.059V47.2H181.8V67.8H178.47l-3.885-15.038h-.058V67.8h-2.884Z" transform="translate(-30.915 -8.501)" fill="#474645"/>
      <path id="Path_24" data-name="Path 24" d="M186.969,47.2h4.061l3.149,12.33h.059V47.2h2.884V67.8H193.8l-3.885-15.038h-.059V67.8h-2.884Z" transform="translate(-33.675 -8.501)" fill="#474645"/>
      <path id="Path_25" data-name="Path 25" d="M202.295,47.2h8.829V50.14h-5.592v5.445h4.444v2.942h-4.444v6.328h5.592V67.8h-8.829Z" transform="translate(-36.436 -8.501)" fill="#474645"/>
      <g id="Group_4" data-name="Group 4" transform="translate(0)">
        <g id="Group_3" data-name="Group 3" clip-path="url(#clip-path)">
          <path id="Path_26" data-name="Path 26" d="M215.324,47.2h4.8a4.951,4.951,0,0,1,3.648,1.163,4.905,4.905,0,0,1,1.148,3.576V53.2q0,3.207-2.119,4.061v.058a2.526,2.526,0,0,1,1.663,1.442,7.26,7.26,0,0,1,.486,2.914V65.3a13.6,13.6,0,0,0,.058,1.427,3.542,3.542,0,0,0,.3,1.074H222a4.644,4.644,0,0,1-.235-.941,14.186,14.186,0,0,1-.058-1.59V61.5a3.211,3.211,0,0,0-.456-1.973,1.935,1.935,0,0,0-1.576-.558H218.56V67.8h-3.236Zm4.414,8.829a1.942,1.942,0,0,0,1.456-.5,2.366,2.366,0,0,0,.485-1.677V52.259a2.61,2.61,0,0,0-.4-1.618,1.5,1.5,0,0,0-1.25-.5H218.56v5.886Z" transform="translate(-38.782 -8.501)" fill="#474645"/>
          <path id="Path_27" data-name="Path 27" d="M144.761,77.925h8.829v2.943H148v5.444h4.444v2.943H148v6.328h5.592v2.943h-8.829Z" transform="translate(-26.073 -14.035)" fill="#007932"/>
          <path id="Path_28" data-name="Path 28" d="M157.789,77.925h4.8a4.139,4.139,0,0,1,4.8,4.738v1.266q0,3.207-2.119,4.061v.058a2.528,2.528,0,0,1,1.663,1.442,7.262,7.262,0,0,1,.485,2.914v3.62a13.55,13.55,0,0,0,.059,1.427,3.563,3.563,0,0,0,.294,1.074h-3.3a4.7,4.7,0,0,1-.236-.941,14.392,14.392,0,0,1-.058-1.589V92.228a3.2,3.2,0,0,0-.456-1.973,1.934,1.934,0,0,0-1.575-.558h-1.118v8.828h-3.237Zm4.414,8.829a1.944,1.944,0,0,0,1.457-.5,2.366,2.366,0,0,0,.485-1.677V82.987a2.615,2.615,0,0,0-.4-1.618,1.5,1.5,0,0,0-1.25-.5h-1.472v5.886Z" transform="translate(-28.42 -14.035)" fill="#007932"/>
          <path id="Path_29" data-name="Path 29" d="M172.255,77.925h4.767a4.717,4.717,0,0,1,3.62,1.295,5.381,5.381,0,0,1,1.207,3.8v2.031a5.38,5.38,0,0,1-1.207,3.8,4.714,4.714,0,0,1-3.62,1.295h-1.53v8.387h-3.237Zm4.767,9.27a1.523,1.523,0,0,0,1.192-.442,2.236,2.236,0,0,0,.4-1.5V82.81a2.237,2.237,0,0,0-.4-1.5,1.523,1.523,0,0,0-1.192-.442h-1.53V87.2Z" transform="translate(-31.025 -14.035)" fill="#007932"/>
          <rect id="Rectangle_12" data-name="Rectangle 12" width="3.282" height="3.282" transform="translate(135.058 32.451)" fill="#ffc412"/>
          <path id="Path_30" data-name="Path 30" d="M49.638,80.414l19-59.254L48.3,27.706A16.792,16.792,0,0,0,37.284,39.12l-.978,3.458Z" transform="translate(-6.539 -3.811)" fill="#00679e"/>
          <path id="Path_31" data-name="Path 31" d="M75.206,24.658,59.815,72.65l1.594,4.275,4.639,12.19h44.5Z" transform="translate(-10.773 -4.441)" fill="#009d9d"/>
          <path id="Path_32" data-name="Path 32" d="M118.572,82.887,133.724,0,106.145,8.71A19.14,19.14,0,0,0,93.837,20.66L90.188,31.125Z" transform="translate(-16.244 0)" fill="#008a32"/>
          <path id="Path_33" data-name="Path 33" d="M42.429,91.144l-16.137-45.8A11.617,11.617,0,0,0,12.67,40.124L0,44.223,16.773,91.8H42.222l.046-.145h.007l0-.011Z" transform="translate(0 -7.125)" fill="#00398e"/>
        </g>
      </g>
    </g>
    <rect id="Rectangle_184" data-name="Rectangle 184" width="225" height="84" transform="translate(1570 2197)" fill="none"/>
  </g>
</svg>
